<?xml version="1.0" standalone="no"?> 
<!DOCTYPE svg PUBLIC "-//W3C//DTD SVG 1.1//EN" "http://www.w3.org/Graphics/SVG/1.1/DTD/svg11.dtd" >
<svg xmlns="http://www.w3.org/2000/svg">
<defs>
  <font id="fa-actiontest-exp" horiz-adv-x="1000">
    <font-face font-family="fa-actiontest-exp"
      units-per-em="1000" ascent="936"
      descent="64" />
    <missing-glyph horiz-adv-x="0" />
    <glyph glyph-name="500px"
      unicode="&#xF101;"
      horiz-adv-x="1000" d=" M781.8 72.7000000000001L778.5 69.4000000000001Q715.4 5.8000000000001 633.9 -28.3Q548 -64 457 -64Q365 -64 280.1 -28.3Q197.5 6.9000000000001 135.6 69.4000000000001Q72.5 131.9000000000001 37.9 213.3000000000001Q14.5 270.8000000000001 7.8 318.8000000000001Q5.6 334.4000000000001 34.6 338.9000000000001Q63.1 343.4000000000001 65.8 327.7000000000001Q66.4 327.2000000000001 66.4 325.5Q76.5 275.3 92.1 236.8Q120 167.5999999999999 176.9 110.6999999999999Q231.6 56 303 25.8Q376.7 -5.4000000000001 457 -5.4000000000001Q536.8 -5.4000000000001 611 25.8Q682.5 56.5 736.6 110.6999999999999L740 113.9999999999999Q745.5 119.5999999999999 753.9 117.3999999999999Q760.6 115.6999999999998 772.3 105.0999999999999Q792.4 84.3999999999999 781.8 72.6999999999999zM518.4 415.9L481.6 379.1L516.6999999999999 343.9Q528.4999999999999 332.2 512.8 316.6Q503.3 307.1 494.9999999999999 307.1Q489.3999999999999 307.1 484.3999999999999 312.7000000000001L449.7999999999999 346.7000000000001L412.8999999999999 309.9000000000001Q410.2 307.1000000000002 404.5999999999999 307.1000000000002Q396.2 307.1000000000002 387.2999999999999 316.0000000000001L386.1999999999999 317.1000000000002Q376.0999999999999 325.5000000000001 376.0999999999999 333.3000000000002Q376.0999999999999 337.2000000000002 380.5999999999999 342.8000000000002L417.3999999999999 379.1000000000002L380.5999999999999 415.9000000000001Q371.6999999999999 424.8000000000001 388.3999999999999 441.0000000000001Q398.3999999999999 451.1000000000001 405.6999999999999 451.1000000000001Q408.9999999999999 451.1000000000001 412.8999999999999 448.3000000000002L449.1999999999999 411.4000000000001L485.4999999999999 447.7000000000001Q495.4999999999999 457.2000000000001 512.2999999999998 440.5000000000001Q527.2999999999998 425.4000000000001 518.3999999999999 415.9000000000001zM781.3 384.1Q781.3 318.3000000000001 755.5999999999999 256.9Q730.4999999999999 198.3 685.3 153.1Q640.5999999999999 108.4 580.9 82.8000000000001T453.7 57.1T326.5 82.8000000000001T222.1 153.1Q176.3 198.8000000000001 152.3 256.9Q144 274.7 144 279.2H143.4Q138.4 294.3 167.4 303.7Q195.3 312.7 200.9 296.9999999999999Q221.5 241.7999999999999 255 203.8999999999999H255.6V394.1Q257.3 470 312.5 523.6Q371.1 581.1 453.7 581.1Q535.7 581.1 593.8 523.6T651.8 384.7000000000001Q651.8 302.6 593.5 244.6T453.7 186.6Q421.3 186.6 391.2 195.5Q375.6 201.6 383.9 229.5Q392.9 258 408.5 253.5L416.3 251.8Q424.1 250.2 434.4000000000001 248.5T451.5000000000001 246.8Q509.5000000000001 246.8 549.7 286.7T589.8000000000001 384.0999999999999Q589.8000000000001 440.4999999999999 549.7 479.4999999999999Q510.0000000000001 519.0999999999999 452.0000000000001 519.0999999999999Q392.3000000000001 519.0999999999999 352.7000000000001 474.4999999999999Q317.0000000000001 434.2999999999999 317.0000000000001 385.2V154.6999999999999Q378.3000000000001 117.4 452.0000000000001 117.4Q505.6000000000001 117.4 555.2 137.6999999999999T642.3000000000001 195.4999999999999T700.1 281.9999999999999T720.4 384.0999999999999Q720.4 494.5999999999999 641.6999999999999 573.3Q563.5999999999999 651.3999999999999 452.5999999999999 651.3999999999999Q340.9999999999999 651.3999999999999 262.7999999999999 573.2999999999998Q233.2999999999999 543.6999999999998 219.8999999999999 524.6999999999998L218.7999999999999 523.5999999999998Q214.2999999999999 517.4999999999998 211.4999999999999 514.9999999999998T199.4999999999999 509.6999999999998T177.9999999999999 511.2999999999998Q166.2999999999999 514.0999999999998 157.5999999999999 520.4999999999998T148.9999999999999 535.2999999999997V914.8Q148.9999999999999 923.2 154.8999999999999 929.6T170.2 936H659.5999999999999Q676.3 936 676.3 905.3T659.5999999999999 874.6H207V605.1H207.6Q229.9 628.5 264.5 652T324.8 686Q385.6 711.7 453.7 711.7Q521.2 711.7 580.9000000000001 686T685.3000000000001 615.7Q730.5000000000001 570.5 755.6 511.9Q781.3000000000001 449.4 781.3000000000001 384.1zM764 708.3Q769 703.9 769 698.3T765.9 688.2T756.6999999999999 676.5Q742.2 662 734.9 662Q729.9 662 726 665.9Q666.9 716.7 610.5 740.0999999999999Q539.1 771.4 456.5 771.4Q382.3 771.4 310.3 744Q295.2 738.5 285.2 764.6999999999999Q280.1 778.5999999999999 280.7 785.9Q282.4 794.8 289.6 797Q362.2 828.9 456.5 828.9Q548 828.9 632.8 793.0999999999999Q709.3 760.8 764 708.3z" />
    <glyph glyph-name="adjust"
      unicode="&#xF102;"
      horiz-adv-x="1000" d=" M428.6 132.4V739.6Q346 739.6 276.2000000000001 698.8T165.7 588.3T125 436T165.7 283.7000000000001T276.2 173.2000000000001T428.6 132.4000000000001zM857.1 436Q857.1 319.4 799.7 220.9T643.7 64.9T428.6 7.4T213.4 64.9T57.5 220.9T0 436T57.5 651.1T213.4 807.1T428.6 864.6T643.7 807.1T799.7 651.1T857.1 436z" />
    <glyph glyph-name="adn"
      unicode="&#xF103;"
      horiz-adv-x="1000" d=" M428.6 588.9L540.7 418.0999999999999H316.4zM632.3 293.0999999999999H684.6999999999999L428.6 678.7L172.4 293.1H224.9L282.9 382.4H574.2zM857.1 436Q857.1 319.4 799.7 220.9T643.7 64.9T428.6 7.4T213.4 64.9T57.5 220.9T0 436T57.5 651.1T213.4 807.1T428.6 864.6T643.7 807.1T799.7 651.1T857.1 436z" />
    <glyph glyph-name="align-center"
      unicode="&#xF104;"
      horiz-adv-x="1000" d=" M1000 186V114.6Q1000 100.1 989.4 89.5T964.3 78.9H35.7Q21.2 78.9 10.6 89.5T0 114.6V186Q0 200.5 10.6 211.1T35.7 221.7000000000001H964.3Q978.8 221.7000000000001 989.4 211.1T1000 186zM785.7 400.3V328.9Q785.7 314.3 775.1 303.7T750 293.1H250Q235.5 293.1 224.9 303.7000000000001T214.3 328.9000000000001V400.3000000000001Q214.3 414.8000000000001 224.9 425.4000000000001T250 436H750Q764.5 436 775.1 425.4T785.7 400.3zM928.6 614.5999999999999V543.0999999999999Q928.6 528.5999999999999 918 518T892.9 507.3999999999999H107.1Q92.6 507.3999999999999 82 518T71.4 543.0999999999999V614.5999999999999Q71.4 629.0999999999999 82 639.7T107.1 650.3H892.9Q907.4 650.3 918 639.7T928.6 614.5999999999999zM714.3 828.9V757.4Q714.3 742.9 703.6999999999999 732.3T678.5999999999999 721.7H321.4Q306.9 721.7 296.3 732.3T285.7 757.4V828.9Q285.7 843.4 296.3 854T321.4 864.6H678.5999999999999Q693.0999999999999 864.6 703.6999999999999 854T714.3 828.9z" />
    <glyph glyph-name="align-justify"
      unicode="&#xF105;"
      horiz-adv-x="1000" d=" M1000 186V114.6Q1000 100.1 989.4 89.5T964.3 78.9H35.7Q21.2 78.9 10.6 89.5T0 114.6V186Q0 200.5 10.6 211.1T35.7 221.7000000000001H964.3Q978.8 221.7000000000001 989.4 211.1T1000 186zM1000 400.3V328.9Q1000 314.3 989.4 303.7T964.3 293.0999999999999H35.7Q21.2 293.0999999999999 10.6 303.7T0 328.9V400.3Q0 414.8 10.6 425.4T35.7 436H964.3Q978.8 436 989.4 425.4T1000.0000000000002 400.3zM1000 614.5999999999999V543.0999999999999Q1000 528.5999999999999 989.4 518T964.3 507.3999999999999H35.7Q21.2 507.3999999999999 10.6 518T0 543.1V614.6Q0 629.1 10.6 639.7T35.7 650.3000000000001H964.3Q978.8 650.3000000000001 989.4 639.7T1000.0000000000002 614.6zM1000 828.9V757.4Q1000 742.9 989.4 732.3T964.3 721.7H35.7Q21.2 721.7 10.6 732.3T0 757.4V828.9Q0 843.4 10.6 854T35.7 864.6H964.3Q978.8 864.6 989.4 854T1000.0000000000002 828.9z" />
    <glyph glyph-name="align-left"
      unicode="&#xF106;"
      horiz-adv-x="1000" d=" M1000 186V114.6Q1000 100.1 989.4 89.5T964.3 78.9H35.7Q21.2 78.9 10.6 89.5T0 114.6V186Q0 200.5 10.6 211.1T35.7 221.7000000000001H964.3Q978.8 221.7000000000001 989.4 211.1T1000 186zM785.7 400.3V328.9Q785.7 314.3 775.1 303.7T750 293.1H35.7Q21.2 293.1 10.6 303.7000000000001T0 328.9V400.3Q0 414.8 10.6 425.4T35.7 436H750Q764.5 436 775.1 425.4T785.7 400.3zM928.6 614.5999999999999V543.0999999999999Q928.6 528.5999999999999 918 518T892.9 507.3999999999999H35.7Q21.2 507.3999999999999 10.6 518T0 543.1V614.6Q0 629.1 10.6 639.7T35.7 650.3000000000001H892.9000000000001Q907.4 650.3000000000001 918.0000000000002 639.7T928.6000000000003 614.6zM714.3 828.9V757.4Q714.3 742.9 703.6999999999999 732.3T678.5999999999999 721.7H35.7Q21.2 721.7 10.6 732.3T0 757.4V828.9Q0 843.4 10.6 854T35.7 864.6H678.6Q693.1 864.6 703.7 854T714.3000000000001 828.9z" />
    <glyph glyph-name="align-right"
      unicode="&#xF107;"
      horiz-adv-x="1000" d=" M1000 186V114.6Q1000 100.1 989.4 89.5T964.3 78.9H35.7Q21.2 78.9 10.6 89.5T0 114.6V186Q0 200.5 10.6 211.1T35.7 221.7000000000001H964.3Q978.8 221.7000000000001 989.4 211.1T1000 186zM1000 400.3V328.9Q1000 314.3 989.4 303.7T964.3 293.0999999999999H250Q235.5 293.0999999999999 224.9 303.7T214.3 328.9V400.3Q214.3 414.8 224.9 425.4T250 436H964.3Q978.8 436 989.4 425.4T1000 400.3zM1000 614.5999999999999V543.0999999999999Q1000 528.5999999999999 989.4 518T964.3 507.3999999999999H107.1Q92.6 507.3999999999999 82 518T71.4 543.0999999999999V614.5999999999999Q71.4 629.0999999999999 82 639.7T107.1 650.3H964.3Q978.8 650.3 989.4 639.7T1000.0000000000002 614.5999999999999zM1000 828.9V757.4Q1000 742.9 989.4 732.3T964.3 721.7H321.4Q306.9 721.7 296.3 732.3T285.7 757.4V828.9Q285.7 843.4 296.3 854T321.4 864.5999999999999H964.3Q978.8 864.5999999999999 989.4 854T1000 828.9z" />
    <glyph glyph-name="amazon"
      unicode="&#xF108;"
      horiz-adv-x="1000" d=" M865.5 112.3Q873.9 115.6999999999999 880 114T886.2 104.2000000000001T877.8000000000001 85.6Q870.5000000000001 76.6 853.2 61.3000000000001T799.9000000000001 23.3000000000001T721.3000000000001 -17.9999999999999T616.4000000000001 -50.2999999999998T488.3000000000001 -63.9999999999999Q421.9000000000001 -63.9999999999999 355.5000000000001 -46.6999999999999T238.8 -4T142.6 54T68.6 112.6T21.8 161.4Q17.3 166.5 16.2 170.6999999999999T16.7 177.4T21.2 181.3T27.6 182.4T34 179.9Q141.2 114.6 201.5 87.1999999999999Q418.5 -11.0000000000001 647.3000000000001 36.9999999999999Q753.3000000000001 59.2999999999998 865.5 112.2999999999998zM981 176.5Q987.2 167.6 982.4 137.7000000000001T966.5 80.5Q947.5 34.2 919.1 11.3Q909.6 3.5 904.6 6.3T904.6 19.6999999999999Q916.3 44.8 929.4 87.4999999999999T933 142.4999999999999Q930.2 146.3999999999999 924.4 148.8999999999999T909.3 152.1999999999998T892.9 153.5999999999998T873.3 153.5999999999998T855.6999999999999 152.4999999999998T838.4 150.7999999999997T825.9 149.6999999999997Q822.5 149.1999999999997 818.6 148.8999999999998T812.5 148.2999999999997T807.8 147.7999999999997T803.9 147.4999999999998H798.3L796.5999999999999 147.7999999999997L795.4999999999999 148.5999999999997L794.5999999999999 150.2999999999997Q791.3 159.1999999999997 820.8999999999999 172.5999999999997T878.2999999999998 189.2999999999997Q903.9999999999998 193.2999999999997 938.5999999999998 189.8999999999998T980.9999999999998 176.4999999999998zM761.2 423.7000000000001Q761.2 406.4000000000001 768.7 388T786.6 355.6T807.5 330T825.9 312.1L833.1 306L706.5 181Q684.2 201.6 662.4 223.1T630 255.8L619.4 266.9Q613.3 273.1 605.5 285.3Q584.3 252.4 551.1 228.0999999999999T479.9 192.6999999999999T401.8000000000001 179.9T325.1000000000001 191.6T259.5000000000001 228.1T213.2000000000001 291.2000000000001T195.9000000000001 381.9000000000001Q195.9000000000001 428.7000000000001 211.5000000000001 467.8000000000001T251.7000000000001 532.8000000000001T311.1000000000001 579.1000000000001T379.5000000000001 610.9000000000001T452.0000000000001 630.2T518.7000000000002 640.5000000000001T574.2000000000002 644.1000000000001V715Q574.2000000000002 751.3 562.5000000000001 769.1Q543.5000000000001 798.7 495.0000000000001 798.7Q491.6000000000001 798.7 485.8000000000001 798.2T463.2000000000001 791.5T431.9000000000001 775T400.7000000000001 741.8T373.9000000000001 688.2L209.8000000000001 703.3Q209.8000000000001 736.8 222.1000000000001 769.7T259.5000000000001 832.8T319.8000000000002 885.8T404.3000000000002 922.3T510.6 936Q566.4 936 611.6 922T683.9 887.7T729.1 841.4T754.2 793.4T761.2 752.4V423.7000000000001zM386.2000000000001 412Q386.2000000000001 364 425.2000000000001 337.8Q462.1 313.2 502.8000000000001 325.5Q549.7 339.5 566.4000000000001 394.1Q574.2 419.3000000000001 574.2 450.5V540.9Q541.3000000000001 539.8 512.3000000000001 534.2T452.8000000000001 515.5T404.3000000000001 475.9T386.2000000000001 412z" />
    <glyph glyph-name="ambulance"
      unicode="&#xF109;"
      horiz-adv-x="1000" d=" M333.302 202.66Q333.302 230.2869999999999 313.795 249.795T266.6600000000001 269.3019999999999T219.525 249.795T200.018 202.66T219.525 155.525T266.6600000000001 136.018T313.795 155.525T333.302 202.66zM133.377 469.32H333.302V602.697H251.072Q243.792 601.577 239.592 597.937L138.044 496.387Q134.404 490.134 133.377 484.907V469.321zM799.98 202.66Q799.98 230.2869999999999 780.474 249.795T733.339 269.3019999999999T686.202 249.795T666.695 202.66T686.202 155.525T733.337 136.018T780.471 155.525T799.978 202.66zM866.716 552.67V652.6299999999999Q866.716 659.9099999999999 861.956 664.67T850.009 669.337H733.34V786.01Q733.34 793.29 728.672 797.956T716.725 802.623H616.67Q609.39 802.623 604.722 797.956T600.055 786.009V669.3389999999999H483.3849999999999Q476.0109999999999 669.3389999999999 471.3449999999999 664.669T466.6779999999999 652.6289999999999V552.6669999999999Q466.6779999999999 545.387 471.3449999999999 540.719T483.3849999999999 535.9590000000001H600.055V419.289Q600.055 412.009 604.722 407.342T616.669 402.675H716.723Q724.0029999999999 402.675 728.67 407.342T733.338 419.289V535.96H850.0079999999999Q857.2879999999999 535.96 861.954 540.72T866.7139999999999 552.6669999999999zM1000 836.0360000000001V235.98Q1000 222.447 990.106 212.554T966.679 202.66H866.7139999999999Q866.7139999999999 147.405 827.606 108.39T733.336 69.283T639.068 108.391T600.053 202.661H400.033Q400.033 147.4069999999999 360.9260000000001 108.391T266.6560000000001 69.285T172.3860000000001 108.3929999999999T133.3730000000001 202.6629999999999H66.642Q53.108 202.6629999999999 43.215 212.5569999999999T33.32 235.98T43.215 259.408T66.642 269.302V486.028Q66.642 499.562 73.456 516.175T90.07 542.7750000000001L193.206 645.912Q203.1 655.806 219.806 662.5260000000001T250.048 669.34H333.304V836.038Q333.304 849.572 343.198 859.465T366.718 869.359H966.682Q980.216 869.359 990.109 859.463T1000 836.037z" />
    <glyph glyph-name="anchor"
      unicode="&#xF10A;"
      horiz-adv-x="1000" d=" M535.7 793.1Q535.7 807.7 525.1 818.3T500 828.9T474.9 818.3T464.3 793.1T474.9 768T500 757.4000000000001T525.1 768T535.7 793.1zM1000 275.3V78.9Q1000 66.6 988.8 62.1Q984.4 61 982.1 61Q974.8999999999997 61 969.3 66L917.4 117.9Q851 38.1 739.7 -8.5T500 -55.1T260.3 -8.5T82.6 117.9L30.7 66Q25.7 61 17.9 61Q15.6 61 11.2 62.1Q0 66.6 0 78.9V275.3Q0 283.0999999999999 5 288.0999999999999T17.9 293.0999999999999H214.3Q226.6 293.0999999999999 231 281.9999999999999Q235.5 271.3999999999999 227.1 262.4999999999999L171.3 206.5999999999999Q208.7 155.8999999999999 277.1 120.9999999999999T428.6 74.9999999999999V436H321.4Q306.9 436 296.3 446.6T285.7 471.7V543.1Q285.7 557.7 296.3 568.3T321.4 578.9000000000001H428.6V669.8000000000001Q396.2 688.8000000000001 376.7 721.4000000000001T357.1 793.1000000000001Q357.1 852.3000000000001 399 894.1000000000001T500 936T601 894.1T642.9 793.1Q642.9 754.1 623.3 721.4T571.4 669.8V578.9H678.6Q693.1 578.9 703.7 568.3T714.3000000000001 543.0999999999999V471.6999999999999Q714.3000000000001 457.1999999999999 703.7 446.5999999999999T678.6 436H571.4V75Q654.6 86.1 722.9 121T828.6999999999999 206.6L772.9 262.5Q764.5 271.4 769 282Q773.4 293.1 785.7 293.1H982.1Q990 293.1 995 288.1T1000 275.3000000000001z" />
    <glyph glyph-name="android"
      unicode="&#xF10B;"
      horiz-adv-x="1000" d=" M275.1 666.5Q284 666.5 290.5 672.9T296.9 688.2T290.5 703.6T275.1 710T260 703.6T253.9 688.2T260 672.9T275.1 666.5zM510.6 666.5Q519.5 666.5 525.7 672.9T531.8000000000001 688.2T525.7 703.6T510.6 710T495.3 703.6T488.8 688.2T495.3 672.9T510.6 666.5zM57.5 563.8Q80.9 563.8 97.7 547T114.4 506.9V266.9Q114.4 242.9 97.9 226.2T57.5 209.4T16.7 226.2T0 266.9V506.9Q0 530.3 16.7 547T57.5 563.8zM649 553.2V181.5Q649 155.9 631.1 138T588.2 120.2000000000001H546.3000000000001V-6.5Q546.3000000000001 -30.5 529.6 -47.3T488.8 -64T448.1 -47.3T431.4000000000001 -6.5V120.2000000000001H354.4000000000001V-6.5Q354.4000000000001 -30.5 337.6 -47.3T296.9000000000001 -64Q273.4000000000001 -64 256.7000000000001 -47.3T240 -6.5L239.4 120.2000000000001H198.1Q172.4 120.2000000000001 154.6 138T136.7 181.5V553.2H649zM519.5 779.2Q579.2 748.5 615 693.5T650.7 573.3H134.5Q134.5 638.6 170.2 693.5T266.2 779.2L226.6 852.3Q222.7 859.5 229.4 863.5Q236.6 866.8 240.5 860.1L280.7 786.4Q333.7 809.9 392.9 809.9T505 786.4L545.2 860.1Q549.1 866.8 556.4000000000001 863.5Q563.1000000000001 859.5 559.2 852.3zM785.7 506.9V266.9Q785.7 242.9 769 226.2T728.2 209.4Q704.8000000000001 209.4 688.1 226.2T671.3000000000001 266.9V506.9Q671.3000000000001 530.9 688.1 547.3T728.2 563.8Q752.2 563.8 769 547.3T785.7 506.9z" />
    <glyph glyph-name="angellist"
      unicode="&#xF10C;"
      horiz-adv-x="1000" d=" M531.8 725.1L468.2 542L533.5 530.3Q625.6 782 625.6 819.4000000000001Q625.6 850.6 604.4 850.6Q572.5 850.6 531.8 725.1zM365 341.7000000000001L383.4 292.6Q404 316 423 330L404.6 333L383.1 336.9L365 341.7zM202 841.7Q202 787 290.7 551Q300.8 556.5 318.1 556.5Q326.5 556.5 359.9 553.7L292.4 749.6Q250.6 872.4 223.8 872.4Q213.2 872.4 207.6 862.6T202 841.7zM157.9 418.1Q157.9 398.1 186.7 351.7000000000001T252.2 266.4000000000001T308 227.3000000000001Q315.8 227.3000000000001 322.3 234.5000000000001T328.7 249.6000000000002Q328.7 263.0000000000001 310.8 306.5000000000001Q303.6 324.4000000000001 293 346.7000000000002T266.5 396.4000000000002T232.1 441.6000000000002T197.5 459.4000000000002Q186.4 459.4000000000002 172.2 444.4000000000002T157.9 418.1000000000003zM69.8 231.2000000000001Q69.8 208.3000000000001 83.7 173.2000000000001Q116.6 92.2000000000001 186.1 46.5T343.2000000000001 0.7Q469.9 0.7 556.4000000000001 95.6Q641.2 189.9 641.2 333.9000000000001Q641.2 357.9000000000001 640.6 371.3000000000001T634.2 405.9000000000001T617.2 437.1000000000001Q585.9000000000001 464.5000000000001 499.2 479.2000000000001T348.2000000000001 494.0000000000001Q327.6 494.0000000000001 320.9000000000001 487.9000000000001Q314.2000000000001 485.1000000000001 314.2000000000001 468.4000000000001Q314.2000000000001 449.4000000000001 326.2000000000001 434.9000000000001T357.1 412.6000000000002T400.4000000000001 399.4000000000001T449.2000000000001 393.0000000000001T496.7 390.8000000000001T535.7 390.8000000000001H548.5Q561.9 390.8000000000001 570.9 380.2000000000001Q579.1999999999999 369.6 581.5 349.5Q565.8 333.9 527.9 319.4Q493.9 307.1 476 293.7Q440.3 267.9999999999999 415.5 230.0999999999999T390.6 153.5999999999999Q390.6 136.3 400.9000000000001 104.1999999999999T411.3 55.4L409.6 48.6999999999999Q407.4000000000001 41.9999999999999 407.4000000000001 40.9Q330.9000000000001 46.5 325.9000000000001 161.4Q321.4000000000001 160.3 303.0000000000001 160.3Q304.1000000000001 156.4 304.1000000000001 148.5999999999999Q304.1000000000001 118.9999999999999 281.5000000000001 98.6999999999999T228.8000000000001 78.3Q183.0000000000001 78.3 135.9000000000001 121.8T88.7000000000001 210.5999999999999Q88.7000000000001 229.4999999999999 107.1000000000001 247.8999999999999Q136.2000000000001 212.1999999999998 140.6000000000001 205.4999999999999Q183.6000000000001 147.4999999999999 214.8000000000001 147.4999999999999Q221.5000000000001 147.4999999999999 229.6000000000001 152.1999999999999T237.7000000000001 163.6999999999999Q237.7000000000001 182.6999999999999 188.9000000000001 244.5999999999999T123.9000000000001 306.4999999999999Q99.9000000000001 306.4999999999999 84.8000000000001 281.7T69.8000000000001 231.2zM6.1 226.2000000000001Q6.1 282.5 29.9 317.1T106 366.2000000000001Q90.4 407.5 90.4 424.3000000000001Q90.4 458.9000000000001 124.4 492.9000000000001T192.5 527.0000000000001Q208.7 527.0000000000001 231.6 518.6000000000001Q140.6 776.4000000000001 140.6 835.0000000000001Q140.6 879.6000000000001 163.5 907.8T229.9 936Q303 936 411.3 611.8Q414.6 602.3 415.7 598.9000000000001Q419.1 607.9000000000001 431.9 643.3T456.2 709.4T486.3 780.6T522.3 849.2T561.6999999999999 897.5T604.4 917.6Q644 917.6 666.9 890.2T689.6999999999999 822.2Q689.6999999999999 761.9000000000001 600.9999999999999 515.2Q634.9999999999999 506.9 657.0999999999999 489.6T689.6999999999999 446T704.1999999999999 393.9T708.0999999999999 332.2Q708.0999999999999 248.4999999999999 681.8999999999999 176T608.2999999999998 50.4T490.4999999999998 -33.3000000000001T335.3999999999999 -64.0000000000001Q273.3999999999999 -64.0000000000001 210.8999999999999 -40.6000000000001Q127.8 -8.8 67 66.3T6.1 226.2000000000001z" />
    <glyph glyph-name="angle-double-down"
      unicode="&#xF10D;"
      horiz-adv-x="1000" d=" M599.9 453.9Q599.9 446.6 594.3 441L334.3 181Q328.7 175.4 321.4 175.4T308.6 181L48.5 441Q43 446.6 43 453.9T48.5 466.7L76.5 494.6Q82 500.2 89.3 500.2T102.1 494.6L321.4 275.3L540.7 494.6Q546.3000000000001 500.2 553.6 500.2T566.4 494.6L594.3 466.7Q599.9 461.1 599.9 453.9zM599.9 668.0999999999999Q599.9 660.9 594.3 655.3L334.3 395.3Q328.7 389.7 321.4 389.7T308.6 395.3L48.4999999999999 655.3Q42.9999999999999 660.9 42.9999999999999 668.0999999999999T48.4999999999999 681L76.4999999999999 708.9Q81.9999999999999 714.5 89.2999999999999 714.5T102.0999999999999 708.9L321.4 489.6L540.7 708.9Q546.3000000000001 714.5 553.6 714.5T566.4 708.9L594.3 681Q599.9 675.4 599.9 668.0999999999999z" />
    <glyph glyph-name="angle-double-left"
      unicode="&#xF10E;"
      horiz-adv-x="1000" d=" M349.9 168.1Q349.9 160.9 344.3 155.3000000000001L316.4 127.4000000000001Q310.8 121.8000000000001 303.6 121.8000000000001T290.7 127.4000000000001L30.7 387.5000000000001Q25.1 393.0000000000001 25.1 400.3000000000001T30.7 413.1L290.7 673.2Q296.3 678.7 303.6 678.7T316.4 673.2L344.3 645.3000000000001Q349.9 639.7 349.9 632.4000000000001T344.3 619.6000000000001L125 400.3L344.3 181Q349.9000000000001 175.4 349.9000000000001 168.1zM564.2 168.1Q564.2 160.9 558.6 155.3000000000001L530.7 127.4000000000001Q525.1 121.8000000000001 517.9000000000001 121.8000000000001T505.0000000000001 127.4000000000001L245 387.5Q239.4 393 239.4 400.3T245 413.0999999999999L505 673.1999999999999Q510.6 678.6999999999999 517.9 678.6999999999999T530.6999999999999 673.1999999999999L558.5999999999999 645.3Q564.1999999999999 639.6999999999999 564.1999999999999 632.4T558.5999999999999 619.5999999999999L339.3 400.3L558.6 181Q564.2 175.4 564.2 168.1z" />
    <glyph glyph-name="angle-double-right"
      unicode="&#xF10F;"
      horiz-adv-x="1000" d=" M332 400.3Q332 393 326.5 387.5L66.4 127.4Q60.8 121.8 53.6 121.8T40.7 127.4L12.8 155.3Q7.3 160.9 7.3 168.0999999999999T12.8 180.9999999999999L232.1 400.3L12.8 619.6Q7.3 625.2 7.3 632.4000000000001T12.8 645.3L40.7 673.2Q46.3 678.7 53.6 678.7T66.4 673.2L326.5 413.0999999999999Q332 407.4999999999999 332 400.3zM546.3 400.3Q546.3 393 540.6999999999999 387.5L280.7 127.4Q275.0999999999999 121.8 267.8999999999999 121.8T254.9999999999999 127.4L227.0999999999999 155.3Q221.4999999999999 160.9 221.4999999999999 168.0999999999999T227.0999999999999 180.9999999999999L446.3999999999999 400.3L227.0999999999999 619.5999999999999Q221.4999999999999 625.2 221.4999999999999 632.4T227.0999999999999 645.3L254.9999999999999 673.1999999999999Q260.5999999999999 678.6999999999999 267.8999999999999 678.6999999999999T280.7 673.1999999999999L540.6999999999999 413.0999999999999Q546.3 407.4999999999999 546.3 400.3z" />
    <glyph glyph-name="angle-double-up"
      unicode="&#xF110;"
      horiz-adv-x="1000" d=" M599.9 203.9Q599.9 196.6 594.3 191L566.4 163.1Q560.8 157.5 553.6 157.5T540.7 163.1L321.4 382.4L102.1 163.1Q96.5 157.5 89.3 157.5T76.5 163.1L48.5 191Q43 196.6 43 203.9T48.5 216.6999999999999L308.6 476.6999999999999Q314.2000000000001 482.3 321.4000000000001 482.3T334.3 476.6999999999999L594.3 216.6999999999999Q599.9 211.0999999999999 599.9 203.9zM599.9 418.0999999999999Q599.9 410.8999999999999 594.3 405.3L566.4 377.4Q560.8 371.8 553.6 371.8T540.7 377.4L321.4 596.7L102.1 377.4Q96.5 371.8 89.3 371.8T76.5 377.4L48.5 405.3Q43 410.9 43 418.0999999999999T48.5 430.9999999999999L308.6 690.9999999999999Q314.2000000000001 696.5999999999999 321.4000000000001 696.5999999999999T334.3 690.9999999999999L594.3 430.9999999999999Q599.9 425.3999999999999 599.9 418.0999999999999z" />
    <glyph glyph-name="angle-down"
      unicode="&#xF111;"
      horiz-adv-x="1000" d=" M599.9 525.3Q599.9 518 594.3 512.5L334.3 252.4Q328.7 246.8 321.4 246.8T308.6 252.4L48.5 512.5Q43 518 43 525.3T48.5 538.1L76.5 566Q82 571.6 89.3 571.6T102.1 566L321.4 346.7000000000001L540.7 566Q546.3000000000001 571.6 553.6 571.6T566.4 566L594.3 538.1Q599.9 532.5 599.9 525.3z" />
    <glyph glyph-name="angle-left"
      unicode="&#xF112;"
      horiz-adv-x="1000" d=" M349.9 632.4Q349.9 625.2 344.3 619.5999999999999L125 400.3L344.3 181Q349.9000000000001 175.4 349.9000000000001 168.1T344.3 155.3000000000001L316.4000000000001 127.4000000000001Q310.8 121.8000000000001 303.6 121.8000000000001T290.7000000000001 127.4000000000001L30.7 387.5000000000001Q25.1 393.0000000000001 25.1 400.3000000000001T30.7 413.1L290.7000000000001 673.2Q296.3000000000001 678.7 303.6 678.7T316.4000000000001 673.2L344.3 645.3000000000001Q349.9000000000001 639.7 349.9000000000001 632.4000000000001z" />
    <glyph glyph-name="angle-right"
      unicode="&#xF113;"
      horiz-adv-x="1000" d=" M332 400.3Q332 393 326.5 387.5L66.4 127.4Q60.8 121.8 53.6 121.8T40.7 127.4L12.8 155.3Q7.3 160.9 7.3 168.0999999999999T12.8 180.9999999999999L232.1 400.3L12.8 619.6Q7.3 625.2 7.3 632.4000000000001T12.8 645.3L40.7 673.2Q46.3 678.7 53.6 678.7T66.4 673.2L326.5 413.0999999999999Q332 407.4999999999999 332 400.3z" />
    <glyph glyph-name="angle-up"
      unicode="&#xF114;"
      horiz-adv-x="1000" d=" M599.9 275.3Q599.9 268 594.3 262.5L566.4 234.5Q560.8 229 553.6 229T540.7 234.5L321.4 453.9L102.1 234.5Q96.5 229 89.3 229T76.5 234.5L48.5 262.5Q43 268 43 275.3T48.5 288.0999999999999L308.6 548.1999999999999Q314.2000000000001 553.6999999999999 321.4000000000001 553.6999999999999T334.3 548.1999999999999L594.3 288.0999999999999Q599.9 282.4999999999999 599.9 275.3z" />
    <glyph glyph-name="apple"
      unicode="&#xF115;"
      horiz-adv-x="1000" d=" M777.3 258Q755.5999999999999 188.2000000000001 708.6999999999999 118.5Q636.6999999999999 9.1 565.3 9.1Q537.9 9.1 487.1999999999999 27Q439.2 44.8 402.8999999999999 44.8Q368.8999999999999 44.8 323.7 26.4Q278.5 7.4 250 7.4Q165.1999999999999 7.4 81.9999999999999 152Q0 297.6 0 432.7Q0 559.9 63.1 641.4Q125.6 721.7 221.5 721.7Q261.7 721.7 320.3 705Q378.3 688.2 397.3 688.2Q422.4000000000001 688.2 477.1 707.2Q534 726.2 573.7 726.2Q640.1 726.2 692.5 689.9Q721.5 669.8 750.6 634.0999999999999Q706.5 596.7 686.9 568.3Q650.6999999999999 515.8 650.6999999999999 452.6999999999999Q650.6999999999999 383.4999999999999 689.1999999999999 328.3T777.3 258zM567.5 912.6Q567.5 878.5 551.3 836.7Q534.5999999999999 794.8 499.4 759.7Q469.3 729.5 439.2 719.5Q418.5 713.3 381.1 710Q382.8 793.1 424.7 853.4Q466 913.1 564.2 936Q564.7 934.3 565.6 929.9T567 923.7Q567 921.5 567.2 918.1T567.5 912.6z" />
    <glyph glyph-name="archive"
      unicode="&#xF116;"
      horiz-adv-x="1000" d=" M607.1 471.7Q607.1 486.2 596.5 496.8T571.4 507.4H428.6Q414.1 507.4 403.5 496.8T392.9 471.7T403.5 446.6T428.6 436H571.4000000000001Q585.9000000000001 436 596.5000000000001 446.6T607.1000000000001 471.7zM928.6 578.9V43.1Q928.6 28.6 918 18T892.9 7.4H107.1Q92.6 7.4 82 18T71.4 43.1V578.9Q71.4 593.4 82 604T107.1 614.6H892.9Q907.4 614.6 918 604T928.6 578.9zM964.3 828.9V686Q964.3 671.5 953.7 660.9T928.6 650.3H71.4Q56.9 650.3 46.3 660.9T35.7 686V828.9Q35.7 843.4 46.3 854T71.4 864.6H928.6Q943.1 864.6 953.7 854T964.3 828.9z" />
    <glyph glyph-name="area-chart"
      unicode="&#xF117;"
      horiz-adv-x="1000" d=" M1000 186.066V123.5060000000001H0V873.528H62.473V186.066H1000zM812.495 686.0219999999999L937.44 248.538H125.033V529.752L343.775 810.966L624.99 529.752z" />
    <glyph glyph-name="arrow-circle-down"
      unicode="&#xF118;"
      horiz-adv-x="1000" d=" M716.5 435.4Q716.5 450.5 706.5 460.6L655.7 511.3Q645.6 521.4 630.6 521.4T605.5 511.3L500 405.9V686Q500 700.5 489.4 711.1T464.3 721.7H392.9Q378.3 721.7 367.7 711.1T357.1 686V405.9L251.7 511.3Q241.1 521.9000000000001 226.6 521.9000000000001T201.5 511.3L150.7 460.6Q140.6 450.5 140.6 435.4000000000001T150.7 410.3000000000001L352.7 208.3000000000001L403.5 157.5000000000001Q413.5 147.5000000000001 428.6 147.5000000000001T453.7 157.5000000000001L504.5000000000001 208.3000000000001L706.5 410.3000000000001Q716.5 420.4000000000001 716.5 435.4000000000001zM857.1 436Q857.1 319.4 799.7 220.9T643.7 64.9T428.6 7.4T213.4 64.9T57.5 220.9T0 436T57.5 651.1T213.4 807.1T428.6 864.6T643.7 807.1T799.7 651.1T857.1 436z" />
    <glyph glyph-name="arrow-circle-left"
      unicode="&#xF119;"
      horiz-adv-x="1000" d=" M714.3 400.3V471.6999999999999Q714.3 486.1999999999999 703.6999999999999 496.8T678.5999999999999 507.4H398.4L503.9 612.9Q514.5 623.5 514.5 638T503.9 663.1L453.1 713.9000000000001Q443.1 723.9000000000001 428 723.9000000000001T402.8999999999999 713.9000000000001L200.8999999999999 511.9L150.0999999999999 461.1Q140.0999999999999 451.1 140.0999999999999 436T150.0999999999999 410.9L200.8999999999999 360.1L402.8999999999999 158.1Q412.8999999999999 148.1 428 148.1T453.1 158.1L503.9 208.9Q514 218.9 514 234T503.9 259.1L398.4 364.6H678.5999999999999Q693.0999999999999 364.6 703.6999999999999 375.2000000000001T714.3 400.3000000000001zM857.1 436Q857.1 319.4 799.7 220.9T643.7 64.9T428.6 7.4T213.4 64.9T57.5 220.9T0 436T57.5 651.1T213.4 807.1T428.6 864.6T643.7 807.1T799.7 651.1T857.1 436z" />
    <glyph glyph-name="arrow-circle-o-down"
      unicode="&#xF11A;"
      horiz-adv-x="1000" d=" M625 418.1Q625 411.4 619.4 404.7000000000001L441.4 226.7000000000001Q435.3 221.7000000000001 428.6 221.7000000000001T415.7 226.7000000000001L237.2 405.3Q228.8 414.2 233.3 424.8Q237.7 436 250 436H357.1V632.4Q357.1 640.2 362.2000000000001 645.3T375.0000000000001 650.3H482.1Q490 650.3 495 645.3T500 632.4V436H607.1Q615 436 620 431T625 418.1zM428.6 739.6Q346 739.6 276.2000000000001 698.8T165.7 588.3T125 436T165.7 283.7000000000001T276.2 173.2000000000001T428.6 132.4000000000001T580.9000000000001 173.2000000000001T691.4000000000001 283.7000000000001T732.1 436T691.4 588.3T580.9 698.8T428.6 739.6zM857.1 436Q857.1 319.4 799.7 220.9T643.7 64.9T428.6 7.4T213.4 64.9T57.5 220.9T0 436T57.5 651.1T213.4 807.1T428.6 864.6T643.7 807.1T799.7 651.1T857.1 436z" />
    <glyph glyph-name="arrow-circle-o-left"
      unicode="&#xF11B;"
      horiz-adv-x="1000" d=" M642.9 489.6V382.4Q642.9 375.2 637.6 369.9T625 364.6H428.6V257.4Q428.6 249.6 423.5 244.6T410.7 239.6Q404 239.6 397.3 245.2000000000001L219.3 423.2000000000001Q214.3 428.2000000000001 214.3 436.0000000000001T219.3 448.8000000000001L397.9 627.4000000000001Q402.9 632.4000000000001 410.7 632.4000000000001Q418 632.4000000000001 423.3 627.1000000000001T428.6 614.6000000000001V507.4000000000001H625Q632.3 507.4000000000001 637.6 502.1000000000001T642.9 489.6000000000001zM732.1 436Q732.1 518.6 691.4 588.3T580.9 698.8T428.6 739.6T276.2 698.8T165.6999999999999 588.3T125 436T165.7 283.7000000000001T276.2 173.2000000000001T428.6 132.4000000000001T580.9000000000001 173.2000000000001T691.4000000000001 283.7000000000001T732.1 436zM857.1 436Q857.1 319.4 799.7 220.9T643.7 64.9T428.6 7.4T213.4 64.9T57.5 220.9T0 436T57.5 651.1T213.4 807.1T428.6 864.6T643.7 807.1T799.7 651.1T857.1 436z" />
    <glyph glyph-name="arrow-circle-o-right"
      unicode="&#xF11C;"
      horiz-adv-x="1000" d=" M642.9 436Q642.9 428.2 637.8 423.2000000000001L459.3 244.6Q454.2 239.6 446.4000000000001 239.6Q439.2000000000001 239.6 433.9000000000001 244.9T428.6 257.4V364.6H232.1Q224.9 364.6 219.6 369.9T214.3 382.4V489.6Q214.3 496.8 219.6 502.1T232.1 507.4H428.6V614.6Q428.6 622.4000000000001 433.6 627.4000000000001T446.4000000000001 632.4000000000001Q453.1 632.4000000000001 459.8 626.8L637.8 448.8Q642.9 443.8 642.9 436zM732.1 436Q732.1 518.6 691.4 588.3T580.9 698.8T428.6 739.6T276.2 698.8T165.6999999999999 588.3T125 436T165.7 283.7000000000001T276.2 173.2000000000001T428.6 132.4000000000001T580.9000000000001 173.2000000000001T691.4000000000001 283.7000000000001T732.1 436zM857.1 436Q857.1 319.4 799.7 220.9T643.7 64.9T428.6 7.4T213.4 64.9T57.5 220.9T0 436T57.5 651.1T213.4 807.1T428.6 864.6T643.7 807.1T799.7 651.1T857.1 436z" />
    <glyph glyph-name="arrow-circle-o-up"
      unicode="&#xF11D;"
      horiz-adv-x="1000" d=" M623.9 447.2Q619.4 436 607.1 436H500V239.6Q500 231.8000000000001 495 226.7000000000001T482.1 221.7000000000001H375Q367.2 221.7000000000001 362.2 226.7000000000001T357.1 239.6V436H250Q242.2 436 237.2 441T232.1 453.9Q232.1 460.6 237.7 467.3L415.7 645.3Q421.9 650.3 428.6 650.3T441.4 645.3L620 466.7Q628.3 457.8 623.9 447.2zM428.6 739.6Q346 739.6 276.2000000000001 698.8T165.7 588.3T125 436T165.7 283.7000000000001T276.2 173.2000000000001T428.6 132.4000000000001T580.9000000000001 173.2000000000001T691.4000000000001 283.7000000000001T732.1 436T691.4 588.3T580.9 698.8T428.6 739.6zM857.1 436Q857.1 319.4 799.7 220.9T643.7 64.9T428.6 7.4T213.4 64.9T57.5 220.9T0 436T57.5 651.1T213.4 807.1T428.6 864.6T643.7 807.1T799.7 651.1T857.1 436z" />
    <glyph glyph-name="arrow-circle-right"
      unicode="&#xF11E;"
      horiz-adv-x="1000" d=" M717.1 436Q717.1 451.1 707 461.1L656.3 511.9L454.1999999999999 713.9000000000001Q444.2 723.9000000000001 429.0999999999999 723.9000000000001T403.9999999999999 713.9000000000001L353.1999999999999 663.1Q343.1999999999999 653.1 343.1999999999999 638T353.1999999999999 612.9L458.6999999999999 507.4H178.6Q164.1 507.4 153.5 496.8T142.9 471.6999999999999V400.3Q142.9 385.8 153.5 375.2T178.6 364.5999999999999H458.7L353.2 259.1Q342.6 248.5 342.6 234T353.2 208.9L404 158.1Q414.1 148.1 429.1 148.1T454.2 158.1L656.3000000000001 360.1L707.0000000000001 410.9Q717.1000000000001 420.9 717.1000000000001 436zM857.1 436Q857.1 319.4 799.7 220.9T643.7 64.9T428.6 7.4T213.4 64.9T57.5 220.9T0 436T57.5 651.1T213.4 807.1T428.6 864.6T643.7 807.1T799.7 651.1T857.1 436z" />
    <glyph glyph-name="arrow-circle-up"
      unicode="&#xF11F;"
      horiz-adv-x="1000" d=" M716.5 436.6Q716.5 451.6 706.5 461.7L504.5 663.7L453.7 714.5Q443.6 724.5 428.6 724.5T403.5 714.5L352.7 663.7L150.6999999999999 461.7Q140.5999999999999 451.6 140.5999999999999 436.6T150.6999999999999 411.4L201.5 360.7Q211.5 350.5999999999999 226.6 350.5999999999999T251.7 360.7L357.0999999999999 466.0999999999999V186Q357.0999999999999 171.5 367.7 160.9T392.8999999999999 150.3H464.3Q478.8 150.3 489.4 160.9T500 186V466.1L605.5 360.7000000000001Q616.1 350.1 630.6 350.1T655.7 360.7000000000001L706.5 411.4000000000001Q716.5 421.5000000000001 716.5 436.6000000000001zM857.1 436Q857.1 319.4 799.7 220.9T643.7 64.9T428.6 7.4T213.4 64.9T57.5 220.9T0 436T57.5 651.1T213.4 807.1T428.6 864.6T643.7 807.1T799.7 651.1T857.1 436z" />
    <glyph glyph-name="arrow-down"
      unicode="&#xF120;"
      horiz-adv-x="1000" d=" M899 471.7Q899 442.1 878.3 421.5L515.1 57.7000000000001Q493.3 37 464.3 37Q434.7 37 414.1 57.7000000000001L50.8 421.5Q29.6 441.6 29.6 471.7Q29.6 501.3 50.8 522.5L92.1 564.3Q113.8 585 142.9 585Q172.4 585 193.1 564.3L357.1 400.3V793.1Q357.1 822.2 378.3 843.4T428.6 864.6H500Q529 864.6 550.2 843.4T571.4000000000001 793.1V400.3L735.5000000000001 564.3Q756.1000000000001 585 785.7000000000002 585Q814.7000000000002 585 836.5000000000001 564.3L878.3000000000001 522.5Q899.0000000000001 500.6999999999999 899.0000000000001 471.6999999999999z" />
    <glyph glyph-name="arrow-left"
      unicode="&#xF121;"
      horiz-adv-x="1000" d=" M857.1 436V364.6Q857.1 335 839 314.1T791.9 293.1H399L562.5 129.1Q583.7 109 583.7 78.9T562.5 28.6L520.6 -13.8Q500 -34.4 470.4 -34.4Q441.4000000000001 -34.4 419.6 -13.8L56.4 350.1Q35.7 370.7000000000001 35.7 400.3000000000001Q35.7 429.3000000000001 56.4 451.1000000000001L419.6 813.8000000000001Q440.8 835.0000000000001 470.4 835.0000000000001Q499.4 835.0000000000001 520.6 813.8000000000001L562.5 772.5Q583.7 751.3000000000001 583.7 721.7T562.5 670.9000000000001L399 507.4H791.9Q820.9 507.4 839 486.5T857.1 436z" />
    <glyph glyph-name="arrow-right"
      unicode="&#xF122;"
      horiz-adv-x="1000" d=" M821.4 400.3Q821.4 370.2 800.8 349.5L437.5 -13.8Q415.7 -34.4 386.7 -34.4Q358.3 -34.4 336.5 -13.8L294.6 28.1Q273.4000000000001 49.3000000000001 273.4000000000001 78.9T294.6 129.6L458.1 293.1H65.3Q36.3 293.1 18.1 314.1T0 364.6V436Q0 465.6 18.1 486.5T65.3 507.4H458.1L294.6 671.5Q273.4000000000001 691.6 273.4000000000001 721.7T294.6 771.9L336.5 813.8Q357.7 835 386.7 835Q416.3 835 437.5 813.8L800.8 450.5Q821.4 431 821.4 400.3z" />
    <glyph glyph-name="arrow-up"
      unicode="&#xF123;"
      horiz-adv-x="1000" d=" M899 394.1Q899 365.7000000000001 878.3 343.9L836.5 302.1Q815.3 280.9 785.7 280.9Q755.6 280.9 735.5 302.1L571.4 465.6V72.7000000000001Q571.4 43.7 550.5 25.6T500 7.4H428.6Q399 7.4 378.1 25.6T357.1 72.7000000000001V465.6L193.1 302.1Q173 280.9 142.9 280.9T92.6 302.1L50.8 343.9Q29.6 365.1 29.6 394.1Q29.6 423.7000000000001 50.8 444.9000000000001L414.1 808.2Q433.6 828.9000000000001 464.3 828.9000000000001Q494.4 828.9000000000001 515.1 808.2L878.3 444.9000000000001Q899 423.2000000000001 899 394.1z" />
    <glyph glyph-name="arrows-alt"
      unicode="&#xF124;"
      horiz-adv-x="1000" d=" M716 634.1L517.9 436L716 237.9L796.3 318.3Q812.5 335.5999999999999 835.4 326.0999999999999Q857.1 316.5999999999999 857.1 293.0999999999999V43.0999999999999Q857.1 28.5999999999999 846.5 17.9999999999999T821.4 7.3999999999999H571.4Q548 7.3999999999999 538.5 29.7999999999998Q529 51.4999999999999 546.3 68.2999999999998L626.6999999999999 148.5999999999998L428.5999999999999 346.6999999999998L230.4999999999999 148.5999999999998L310.7999999999999 68.2999999999998Q328.0999999999999 51.4999999999999 318.5999999999999 29.7999999999998Q309.2 7.3999999999999 285.7 7.3999999999999H35.6999999999999Q21.1999999999999 7.3999999999999 10.5999999999999 17.9999999999999T0 43.1V293.1Q0 316.6 22.3 326.1Q44.1 335.6 60.8 318.3000000000001L141.2 237.9000000000001L339.3 436L141.2 634.1L60.8 553.7Q50.2 543.1 35.7 543.1Q29 543.1 22.3 545.9000000000001Q0 555.4 0 578.9V828.9Q0 843.4 10.6 854T35.7 864.6H285.7Q309.2 864.6 318.6 842.2Q328.1 820.5 310.8 803.7L230.5 723.4L428.5999999999999 525.3L626.6999999999999 723.4L546.3 803.6999999999999Q529 820.4999999999999 538.5 842.1999999999999Q548 864.5999999999999 571.4 864.5999999999999H821.4Q835.9 864.5999999999999 846.5 854T857.1 828.9V578.9Q857.1 555.4 835.4 545.9Q828.1 543.0999999999999 821.4 543.0999999999999Q806.9 543.0999999999999 796.3 553.7z" />
    <glyph glyph-name="arrows-h"
      unicode="&#xF125;"
      horiz-adv-x="1000" d=" M1000 436Q1000 421.5 989.4 410.9L846.5 268Q835.9 257.4 821.4 257.4T796.3 268T785.6999999999999 293.1V364.6H214.3V293.1Q214.3 278.6 203.7 268T178.6 257.4T153.5 268L10.6 410.9Q0 421.5 0 436T10.6 461.1L153.5 604Q164.1 614.6 178.6 614.6T203.7 604T214.3 578.9V507.4H785.6999999999999V578.9Q785.6999999999999 593.4 796.3 604T821.4 614.6T846.5 604L989.4 461.1Q1000 450.5 1000 436z" />
    <glyph glyph-name="arrows-v"
      unicode="&#xF126;"
      horiz-adv-x="1000" d=" M392.9 757.4Q392.9 742.9 382.3 732.3T357.1 721.7H285.7V150.3000000000001H357.0999999999999Q371.7 150.3000000000001 382.2999999999999 139.7000000000001T392.8999999999999 114.6T382.2999999999999 89.5L239.4 -53.4Q228.8 -64 214.3 -64T189.2 -53.4L46.3 89.5Q35.7 100.1 35.7 114.6T46.3 139.7000000000001T71.4 150.3000000000001H142.9V721.7H71.4Q56.9 721.7 46.3 732.3T35.7 757.4T46.3 782.5L189.2 925.4Q199.8 936 214.3 936T239.4 925.4L382.3 782.5Q392.9000000000001 771.9 392.9000000000001 757.4z" />
    <glyph glyph-name="arrows"
      unicode="&#xF127;"
      horiz-adv-x="1000" d=" M1000 436Q1000 421.5 989.4 410.9L846.5 268Q835.9 257.4 821.4 257.4T796.3 268T785.6999999999999 293.1V364.6H571.4V150.3H642.9Q657.4 150.3 668 139.6999999999999T678.6 114.5999999999999T668 89.4999999999999L525.1 -53.4Q514.5 -64 500 -64T474.9 -53.4L332 89.5Q321.4 100.1 321.4 114.6T332 139.7000000000001T357.1 150.3000000000001H428.6V364.6H214.3V293.1Q214.3 278.6 203.7 268T178.6 257.4T153.5 268L10.6 410.9Q0 421.5 0 436T10.6 461.1L153.5 604Q164.1 614.6 178.6 614.6T203.7 604T214.3 578.9V507.4H428.6V721.7H357.1Q342.6 721.7 332 732.3T321.4 757.4T332 782.5L474.9 925.4Q485.5 936 500 936T525.1 925.4L668 782.5Q678.6 771.9 678.6 757.4T668 732.3T642.9 721.7H571.4V507.4H785.7V578.9Q785.7 593.4 796.3000000000001 604T821.4000000000001 614.6T846.5000000000001 604L989.4 461.1Q1000.0000000000002 450.5 1000.0000000000002 436z" />
    <glyph glyph-name="asterisk"
      unicode="&#xF128;"
      horiz-adv-x="1000" d=" M827 350.1Q852.7 335.6 860.2 306.8000000000001T853.2 252.4000000000001L817.5 191Q803 165.4 774.3 157.8T719.9 164.8L571.4 250.2V78.8999999999999Q571.4 49.7999999999998 550.1999999999999 28.5999999999999T500 7.4H428.6Q399.6 7.4 378.3 28.6T357.1 78.9V250.2000000000001L208.7 164.8000000000001Q183 150.3000000000001 154.3 157.8000000000001T111 191L75.3 252.4Q60.8 278.1 68.4 306.8T101.6 350.0999999999999L250 436L101.6 521.9Q75.9 536.4 68.4 565.2T75.3 619.5999999999999L111 681Q125.6 706.6 154.3 714.2T208.7 707.2L357.1 621.8V793.1Q357.1 822.2 378.3 843.4T428.6 864.6H500Q529 864.6 550.2 843.4T571.4000000000001 793.1V621.8L719.9000000000001 707.1999999999999Q745.5000000000001 721.6999999999999 774.3000000000001 714.1999999999999T817.5000000000001 681L853.2000000000002 619.5999999999999Q867.7000000000002 593.9 860.2000000000002 565.2T827 521.9L678.6 436z" />
    <glyph glyph-name="at"
      unicode="&#xF129;"
      horiz-adv-x="1000" d=" M542.4 503.5Q542.4 563.8 512.6 597.8T430.2000000000001 631.9000000000001Q395.1 631.9000000000001 361.0000000000001 614.9000000000001T299.7000000000001 567.7T255.3000000000001 491.2T238.3000000000001 390.8000000000001Q238.3000000000001 328.3000000000001 268.1 294.3000000000001T352.1 260.2000000000001Q405.7000000000001 260.2000000000001 450.3 297.3000000000001T518.7 390.0000000000001T542.4000000000001 503.5000000000001zM857.1 436Q857.1 374.1 836.5 326.1T781.5 250.7000000000001T708.1 209.2000000000001T627.2 193.8000000000001Q623.9000000000001 193.8000000000001 618.6 193.5000000000001T609.4 193.3000000000001Q556.4 193.3000000000001 530.1 222.8000000000001Q514.5 241.2000000000001 511.7 269.1Q482.7 232.3000000000001 438.3000000000001 207.8000000000001T341.5000000000001 183.2000000000001Q251.7000000000001 183.2000000000001 202.3000000000001 236.5T152.9000000000001 386.9Q152.9000000000001 474.5 189.7000000000001 548.7T289.6 666.2T426.9000000000001 709.4Q475.4 709.4 513.4000000000001 689.5999999999999T572.5000000000001 634.0999999999999L573.7000000000002 644.7L579.8000000000002 676Q580.4000000000002 679.3 582.9000000000002 682.7T588.2000000000002 686H654Q656.8 686 661.3 679.9Q664.0999999999999 677.0999999999999 662.9 670.9L596 328.3Q593.2 314.9 593.2 301.5Q593.2 279.7000000000001 600.2 272.5T625 265.2000000000001Q640.6 265.8000000000001 656.8 268.3000000000001T697.5 281.7000000000001T740.5 309.6T772.3 359.5T785.6999999999999 436Q785.6999999999999 598.9 688.5999999999999 696T428.5999999999999 793.1Q355.9999999999999 793.1 289.8999999999999 764.7T176.0999999999999 688.5T99.8999999999999 574.7T71.4 436T99.9 297.3T176.1 183.5T289.9000000000001 107.3T428.6 78.9Q555.8000000000001 78.9 654.6 159.1999999999999Q660.7 164.1999999999999 668 163.6999999999999T679.7 156.9999999999999L702.6 129.5999999999999Q707 122.8999999999999 706.5 116.1999999999999Q705.4 108.9999999999999 699.8 103.9999999999999Q642.9 57.6999999999999 572.8 32.4999999999999T428.6 7.3999999999999Q341.5 7.3999999999999 262.3 41.4999999999999T125.6 133T34 269.7000000000001T0 436T34 602.3T125.6 739T262.3 830.5T428.6 864.6Q620.5 864.6 738.8 746.3T857.1 436z" />
    <glyph glyph-name="automobile"
      unicode="&#xF12A;"
      horiz-adv-x="1000" d=" M234.404 404.807Q234.404 437.007 211.392 459.93T156.269 482.854T101.059 459.93T78.133 404.807T101.057 349.597T156.267 326.673T211.389 349.597T234.401 404.807zM251.904 560.989H748.01L704.52 735.28Q703.558 739.217 697.6949999999999 743.855T687.458 748.492H312.45Q308.075 748.492 302.213 743.855T295.388 735.28zM921.864 404.8050000000001Q921.864 437.0050000000001 898.854 459.9280000000001T843.73 482.8510000000001T788.52 459.9270000000001T765.596 404.8030000000001T788.52 349.5930000000001T843.73 326.6690000000001T898.8530000000001 349.5930000000001T921.865 404.8030000000001zM1000 451.6150000000001V264.1110000000001Q1000 257.2860000000001 995.538 252.9110000000001T984.338 248.5360000000001H937.44V186.0630000000001Q937.44 146.9530000000001 910.1400000000002 119.6530000000001T843.7300000000001 92.2670000000002T777.3200000000002 119.6520000000002T749.9350000000002 186.0620000000001V248.5350000000001H249.98V186.0620000000001Q249.98 146.9520000000001 222.68 119.6520000000002T156.27 92.2660000000002T89.86 119.6510000000002T62.474 186.0610000000002V248.5340000000001H15.664Q8.751 248.5340000000001 4.376 252.9090000000001T0 264.1130000000001V451.618Q0 497.028 32.025 529.053T109.372 560.989H123.022L174.294 765.554Q185.581 811.49 225.13 842.4639999999999T312.452 873.524H687.462Q735.324 873.524 774.872 842.4639999999999T825.62 765.554L876.893 560.987H890.63Q936.04 560.987 967.977 529.05T1000 451.62z" />
    <glyph glyph-name="backward"
      unicode="&#xF12B;"
      horiz-adv-x="1000" d=" M903.5 857.3Q914.1 867.9 921.3 864.6T928.6 846.7V25.3Q928.6 10.8 921.3 7.4T903.5 14.6999999999999L507.3 410.9Q502.8 415.9 500 421.5V25.3Q500 10.8 492.7 7.4T474.9 14.6999999999999L78.7 410.9Q68.1 421.5 68.1 436T78.7 461.1L474.9 857.3Q485.5 867.9 492.7 864.6T500 846.7V450.5Q502.8 456.6 507.3 461.1z" />
    <glyph glyph-name="balance-scale"
      unicode="&#xF12C;"
      horiz-adv-x="1000" d=" M750.02 741.553L583.34 435.96H916.698zM194.446 741.553L27.766 435.96H361.1260000000001zM550.75 824.853Q544.683 807.509 531.072 793.8199999999999T500.038 774.142V213.7470000000001H763.863Q770.008 213.7470000000001 773.8960000000001 209.8570000000001T777.7860000000001 199.9020000000001V172.135Q777.7860000000001 165.99 773.8960000000001 162.102T763.863 158.212H180.523Q174.456 158.212 170.567 162.102T166.6770000000001 172.135V199.9020000000001Q166.6770000000001 205.9690000000001 170.567 209.8580000000001T180.523 213.7480000000001H444.4260000000001V774.14Q427.081 780.207 413.3920000000001 793.818T393.6360000000001 824.852H180.523Q174.456 824.852 170.567 828.819T166.677 838.775V866.544Q166.677 872.611 170.567 876.5T180.523 880.467H393.636Q402.814 905.201 424.046 920.601T472.193 936T520.4159999999999 920.6T550.7499999999999 880.467H763.8599999999999Q770.0049999999999 880.467 773.8929999999999 876.5T777.7829999999999 866.544V838.777Q777.7829999999999 832.71 773.8929999999999 828.821T763.8599999999999 824.856H550.75zM472.194 817.933Q486.584 817.933 496.772 828.121T506.962 852.701T496.772 877.201T472.194 887.391T447.694 877.201T437.504 852.701T447.694 828.123T472.194 817.935zM944.466 435.96Q944.466 404.305 924.244 379.105T873.3 339.67T810.5319999999999 318.126T750.02 310.9700000000001T689.43 318.126T626.74 339.671T575.717 379.107T555.572 435.963Q555.572 440.786 570.739 471.1199999999999T610.715 546.875T657.149 631.731T701.406 711.6109999999999T725.673 755.011Q733.529 769.3209999999999 750.018 769.3209999999999T774.283 755.011Q776.073 751.977 798.628 711.6109999999999T842.885 631.731T889.319 546.875T929.299 471.1189999999999T944.466 435.9629999999999zM388.8930000000001 435.96Q388.8930000000001 404.305 368.7480000000001 379.105T317.725 339.6710000000001T254.9580000000001 318.1280000000001T194.446 310.9720000000001T133.934 318.1290000000002T71.167 339.6740000000001T20.144 379.1090000000002T0 435.96Q0 440.783 15.166 471.117T55.144 546.8729999999999T101.578 631.7289999999999T145.834 711.606T170.101 755.006Q177.959 769.3159999999999 194.448 769.3159999999999T218.793 755.006Q220.505 751.973 243.061 711.606T287.317 631.7259999999999T333.751 546.8709999999999T373.729 471.1149999999999T388.896 435.9589999999999z" />
    <glyph glyph-name="ban"
      unicode="&#xF12D;"
      horiz-adv-x="1000" d=" M732.1 437.7Q732.1 527.5 683.6 602.3L262.8 182.1Q339.3 132.4 428.6 132.4Q490.5 132.4 546.6 156.6999999999999T643.4 221.6999999999999T708.1 319.0999999999999T732.1 437.7zM174.7 270.8L596 691.6Q520.6 742.4 428.6 742.4Q346 742.4 276.2000000000001 701.5999999999999T165.7000000000001 590.5999999999999T125 437.7Q125 347.3 174.7 270.8zM857.0999999999999 437.7Q857.0999999999999 350.0999999999999 823.0999999999999 270.3T731.9 133T595.0999999999999 41.5T428.5999999999999 7.4T262 41.5T125.3 133T34 270.3T0 437.7T34 604.8T125.3 741.8T262 833.3T428.6 867.4T595.1 833.3T731.9000000000001 741.8T823.1000000000001 604.8T857.1000000000001 437.7000000000001z" />
    <glyph glyph-name="bar-chart-o"
      unicode="&#xF12E;"
      horiz-adv-x="1000" d=" M312.45 498.516V248.538H187.507V498.516H312.45zM499.956 748.494V248.538H375.01V748.494H499.956zM1000 186.064V123.5039999999999H0V873.528H62.473V186.066H1000zM687.462 623.55V248.538H562.517V623.548H687.462zM874.967 810.967V248.5370000000001H749.934V810.967H874.967z" />
    <glyph glyph-name="barcode"
      unicode="&#xF12F;"
      horiz-adv-x="1000" d=" M35.2 78.9H0V864.6H35.2V78.9zM70.3 79.4H52.5V864.6H70.3V79.4zM122.8 79.4H105.5V864.6H122.8V79.4zM210.4 79.4H193.1V864.6H210.4V79.4zM298 79.4H263.4V864.6H298V79.4zM368.3 79.4H351V864.6H368.3V79.4zM403.5 79.4H386.2V864.6H403.5V79.4zM438.6 79.4H421.3V864.6H438.6V79.4zM526.2 79.4H491.1V864.6H526.2V79.4zM613.8000000000001 79.4H578.7V864.6H613.8000000000001V79.4zM684.2 79.4H649V864.6H684.2V79.4zM754.5 79.4H719.3V864.6H754.5V79.4zM806.9 79.4H771.8V864.6H806.9V79.4zM912.4 79.4H859.9V864.6H912.4V79.4zM947.5 79.4H929.7V864.6H947.5V79.4zM1000 78.9H964.8V864.6H1000V78.9z" />
    <glyph glyph-name="battery-0"
      unicode="&#xF130;"
      horiz-adv-x="1000" d=" M944.466 686.02Q967.488 686.02 983.744 669.685T1000 630.4069999999999V463.8049999999999Q1000 440.783 983.744 424.527T944.466 408.193V338.737Q944.466 310.1139999999999 924.088 289.737T875.01 269.357H69.457Q40.834 269.357 20.379 289.737T-0.001 338.737V755.475Q-0.001 784.098 20.379 804.475T69.455 824.855H875.01Q903.633 824.855 924.088 804.475T944.466 755.475V686.019zM944.466 463.805V630.4069999999999H888.932V755.475Q888.932 761.542 884.965 765.431T875.009 769.3209999999999H69.454Q63.387 769.3209999999999 59.498 765.431T55.53 755.477V338.7390000000001Q55.53 332.6720000000001 59.497 328.783T69.452 324.895H875.01Q881.076 324.895 884.965 328.785T888.932 338.74V463.804H944.466z" />
    <glyph glyph-name="battery-1"
      unicode="&#xF131;"
      horiz-adv-x="1000" d=" M111.146 380.427V713.787H333.36V380.427H111.146zM944.466 686.019Q967.488 686.019 983.744 669.683T1000 630.4069999999999V463.8049999999999Q1000 440.783 983.744 424.527T944.466 408.193V338.737Q944.466 310.1139999999999 924.088 289.737T875.01 269.357H69.457Q40.834 269.357 20.379 289.737T-0.001 338.737V755.475Q-0.001 784.098 20.379 804.475T69.455 824.855H875.01Q903.633 824.855 924.088 804.475T944.466 755.475V686.019zM944.466 463.803V630.4069999999999H888.932V755.475Q888.932 761.542 884.965 765.431T875.009 769.3209999999999H69.454Q63.387 769.3209999999999 59.498 765.431T55.53 755.477V338.7390000000001Q55.53 332.6720000000001 59.497 328.783T69.452 324.895H875.01Q881.076 324.895 884.965 328.785T888.932 338.74V463.804H944.466z" />
    <glyph glyph-name="battery-2"
      unicode="&#xF132;"
      horiz-adv-x="1000" d=" M111.146 380.427V713.787H500.04V380.427H111.145zM944.466 686.019Q967.488 686.019 983.744 669.683T1000 630.4069999999999V463.8049999999999Q1000 440.783 983.744 424.527T944.466 408.193V338.737Q944.466 310.1139999999999 924.088 289.737T875.01 269.357H69.457Q40.834 269.357 20.379 289.737T-0.001 338.737V755.475Q-0.001 784.098 20.379 804.475T69.455 824.855H875.01Q903.633 824.855 924.088 804.475T944.466 755.475V686.019zM944.466 463.803V630.4069999999999H888.932V755.475Q888.932 761.542 884.965 765.431T875.009 769.3209999999999H69.454Q63.387 769.3209999999999 59.498 765.431T55.53 755.477V338.7390000000001Q55.53 332.6720000000001 59.497 328.783T69.452 324.895H875.01Q881.076 324.895 884.965 328.785T888.932 338.74V463.804H944.466z" />
    <glyph glyph-name="battery-3"
      unicode="&#xF133;"
      horiz-adv-x="1000" d=" M111.146 380.427V713.787H666.64V380.427H111.147zM944.466 686.019Q967.488 686.019 983.744 669.683T1000 630.4069999999999V463.8049999999999Q1000 440.783 983.744 424.527T944.466 408.193V338.737Q944.466 310.1139999999999 924.088 289.737T875.01 269.357H69.457Q40.834 269.357 20.379 289.737T-0.001 338.737V755.475Q-0.001 784.098 20.379 804.475T69.455 824.855H875.01Q903.633 824.855 924.088 804.475T944.466 755.475V686.019zM944.466 463.803V630.4069999999999H888.932V755.475Q888.932 761.542 884.965 765.431T875.009 769.3209999999999H69.454Q63.387 769.3209999999999 59.498 765.431T55.53 755.477V338.7390000000001Q55.53 332.6720000000001 59.497 328.783T69.452 324.895H875.01Q881.076 324.895 884.965 328.785T888.932 338.74V463.804H944.466z" />
    <glyph glyph-name="battery-4"
      unicode="&#xF134;"
      horiz-adv-x="1000" d=" M833.32 713.7860000000001V380.426H111.145V713.786H833.32zM888.932 463.806H944.466V630.4060000000001H888.932V755.4760000000001Q888.932 761.542 884.965 765.431T875.009 769.321H69.454Q63.387 769.321 59.498 765.431T55.53 755.4770000000001V338.7390000000001Q55.53 332.6720000000001 59.497 328.783T69.452 324.895H875.01Q881.076 324.895 884.965 328.785T888.932 338.74V463.804zM1000 630.406V463.806Q1000 440.7820000000001 983.744 424.5260000000001T944.466 408.1920000000001V338.7360000000001Q944.466 310.1130000000001 924.088 289.7360000000001T875.01 269.3560000000001H69.457Q40.834 269.3560000000001 20.379 289.7360000000001T-0.001 338.7360000000001V755.4760000000001Q-0.001 784.0980000000002 20.379 804.4760000000001T69.455 824.8560000000001H875.01Q903.633 824.8560000000001 924.088 804.4760000000001T944.466 755.4760000000001V686.0190000000001Q967.488 686.0190000000001 983.744 669.6830000000001T1000 630.4069999999999z" />
    <glyph glyph-name="beer"
      unicode="&#xF135;"
      horiz-adv-x="1000" d=" M357.1 436V650.3H214.3V507.4Q214.3 477.9 235.2 456.9T285.7000000000001 436H357.1zM928.6 186V78.9H285.7V186L357.1 293.1H285.7000000000001Q197.0000000000001 293.1 134.2000000000001 355.9T71.4 507.4V686L35.7 721.7L53.6 793.1H321.4000000000001L339.3 864.6H875L892.9 757.4L857.1 739.5999999999999V293.0999999999999z" />
    <glyph glyph-name="behance-square"
      unicode="&#xF136;"
      horiz-adv-x="1000" d=" M696.4 864.6Q762.8 864.6 810 817.4T857.1 703.9V168.1Q857.1 101.7000000000001 810 54.6T696.4 7.4H160.7Q94.3 7.4 47.2 54.6T0 168.1V703.9Q0 770.3 47.2 817.4T160.7 864.6H696.4000000000001zM278.5 659.8H71.4V220.6H284.6Q349.9000000000001 220.6 394.5 252.7000000000001T439.2 347.8000000000001Q439.2 436.0000000000001 359.4 459.4000000000001Q419.1 488.5000000000001 419.1 551.0000000000001Q419.1 582.8000000000002 408.2 604.8000000000002T376.7 638.6000000000001T332.6 655.0000000000001T278.5 659.8000000000002zM266.2 482.3H168V585H258.9Q325.3 585 325.3 534.8Q325.3 482.3 266.2 482.3zM271.2 295.4H168V416.5H273.4Q342.6 416.5 342.6 353.4Q342.6 295.4 271.2 295.4zM633.9 277.5Q596 277.5 575.9 298.7000000000001T555.8 358.4000000000001H785.1999999999999Q785.6999999999999 364.0000000000001 785.6999999999999 375.2000000000001Q785.6999999999999 448.8000000000001 744.0999999999999 498.2T630.5999999999999 547.6Q559.1999999999999 547.6 513.3999999999999 499.6T467.5999999999999 379.1Q467.5999999999999 303.7000000000001 511.6999999999999 258T630.5999999999999 212.2000000000001Q744.9999999999999 212.2000000000001 779.5999999999999 318.8000000000001H702.5999999999999Q696.3999999999999 299.8000000000001 676.0999999999999 288.7000000000001T633.8999999999999 277.5zM628.3 481.8Q691.4 481.8 697.5 413.7000000000001H555.8Q558 444.9000000000001 577.5999999999999 463.3000000000001T628.3 481.8000000000001zM537.9 630.2H716V587.2H537.9V630.2z" />
    <glyph glyph-name="behance"
      unicode="&#xF137;"
      horiz-adv-x="1000" d=" M902.354 770.456H652.8140000000001V709.908H902.354V770.456zM779.2460000000001 562.476Q735.3230000000001 562.476 708.0240000000001 536.8389999999999T677.7500000000001 467.279H876.8930000000001Q868.1430000000001 562.473 779.2470000000002 562.473zM787.1210000000001 276.886Q817.8340000000001 276.886 846.6210000000001 292.461T883.7210000000001 334.986H991.6910000000001Q942.8680000000002 185.016 783.1860000000001 185.016Q678.7160000000001 185.016 616.9420000000001 249.502T555.17 418.896Q555.17 520.48 618.8679999999999 587.5899999999999T783.1879999999999 654.786Q850.5579999999999 654.786 900.6079999999998 621.536T975.3299999999998 534.1279999999999T1000 413.0320000000001Q1000 404.807 998.95 390.1080000000001H677.75Q677.75 335.9480000000001 705.75 306.374T787.122 276.8880000000001zM135.27 301.3H279.815Q379.911 301.3 379.911 382.7579999999999Q379.911 470.6919999999999 282.704 470.6919999999999H135.27V301.2979999999999zM135.27 563.4399999999999H272.4650000000001Q310.5250000000001 563.4399999999999 332.75 581.288T354.974 636.673Q354.974 707.02 262.227 707.02H135.27V563.4379999999999zM0 812.016H290.052Q332.488 812.016 365.737 805.104T427.5100000000001 781.917T471.433 734.844T486.833 659.684Q486.833 571.2239999999999 402.8350000000001 531.239Q458.4830000000001 515.576 486.8320000000001 475.065T515.0920000000001 375.495Q515.0920000000001 338.833 503.1920000000001 308.822T470.9070000000002 258.249T422.8710000000002 223.601T363.7250000000002 203.127T298.3650000000001 196.74H0V812.02z" />
    <glyph glyph-name="bell-o"
      unicode="&#xF138;"
      horiz-adv-x="1000" d=" M508.9 -10.4Q508.9 -1.5 500 -1.5Q467.1 -1.5 443.4 22.2T419.6 78.9000000000001Q419.6 87.8000000000001 410.7 87.8000000000001T401.8 78.9000000000001Q401.8 38.1000000000001 430.5 9.4000000000001T500 -19.3999999999999Q508.9 -19.3999999999999 508.9 -10.3999999999999zM137.3 150.3H862.7Q714.3 317.7000000000001 714.3 614.6Q714.3 643 700.9 673.2T662.4 730.6T594.6 775.6T500 793.1T405.4 775.6T337.6 730.6T299.1 673.2T285.7 614.6Q285.7 317.7000000000001 137.3 150.3zM964.3 150.3Q964.3 121.3 943.1 100.0999999999999T892.8999999999999 78.8999999999999H642.8999999999999Q642.8999999999999 19.6999999999998 600.9999999999999 -22.1000000000001T500 -64T399 -22.1T357.1 78.9H107.1Q78.1 78.9 56.9 100.1T35.7 150.3000000000001Q63.6 173.7000000000001 86.5 199.4000000000001T133.9 266.1000000000002T175.5 354.5000000000001T203.4 469.5000000000001T214.3 614.6000000000001Q214.3 699.4000000000001 279.6 772.2000000000002T450.9 860.7000000000002Q446.4000000000001 871.3000000000002 446.4000000000001 882.4000000000001Q446.4000000000001 904.8000000000002 462.1 920.4T500 936T537.9 920.4T553.6 882.4Q553.6 871.3 549.1 860.7Q655.1 845 720.4000000000001 772.2T785.7 614.6Q785.7 537 796.6 469.5T824.5 354.5T866.1 266.1T913.5 199.4T964.3 150.3z" />
    <glyph glyph-name="bell-slash-o"
      unicode="&#xF139;"
      horiz-adv-x="1000" d=" M507.83 107.93Q507.83 115.718 499.956 115.718Q471.17 115.718 450.4329999999999 136.4549999999999T429.6959999999999 186.065Q429.6959999999999 193.853 421.8209999999999 193.853T414.0359999999999 186.0659999999999Q414.0359999999999 150.3659999999999 439.2359999999999 125.2559999999999T499.9579999999999 100.0559999999998Q507.8329999999999 100.0559999999998 507.8329999999999 107.9319999999998zM245.604 339.798L673.814 710.8720000000001Q653.3389999999999 753.922 609.064 782.4449999999999T499.957 810.97Q454.547 810.97 417.185 795.657T357.86 756.28T324.175 706.058T312.45 654.785Q312.45 467.28 245.603 339.7970000000001zM906.204 248.538Q906.204 223.165 887.6540000000001 204.616T843.7320000000001 186.066H624.99Q624.99 134.269 588.328 97.696T499.956 61.034T411.846 97.434T375.011 185.5419999999999L447.721 248.5419999999999H817.3969999999999Q736.286 339.8 706.538 472.62L760.698 520.043Q790.534 346.188 906.205 248.543zM948.2 928.214L989.237 881.316Q993.0870000000002 876.4159999999999 992.912 869.854T987.75 858.83L73.76 66.894Q68.86 62.957 62.21 63.482T51.797 68.819L10.76 115.718Q6.824 120.618 7.086 127.18T12.248 137.68L102.982 216.3399999999999Q93.707 231.9139999999999 93.707 248.54Q118.119 269.0129999999999 138.155 291.5T179.715 349.86T216.027 427.207T240.439 527.827T249.974 654.787Q249.974 728.983 307.109 792.681T456.992 870.1179999999999Q453.1419999999999 879.393 453.1419999999999 889.105Q453.1419999999999 908.705 466.7919999999999 922.355T499.953 936T533.203 922.352T546.85 889.102Q546.85 879.392 542.914 870.116Q603.462 861.279 649.834 829.78T722.107 752.87L926.237 930.138Q931.137 934.075 937.699 933.55T948.199 928.213z" />
    <glyph glyph-name="bell-slash"
      unicode="&#xF13A;"
      horiz-adv-x="1000" d=" M760.696 520.04Q790.532 346.1850000000001 906.203 248.54Q906.203 223.165 887.653 204.616T843.731 186.066H624.99Q624.99 134.269 588.328 97.696T499.956 61.034T411.846 97.434T375.011 185.5419999999999zM499.956 100.057Q507.831 100.057 507.831 107.932T499.958 115.7190000000001Q471.172 115.7190000000001 450.435 136.4540000000001T429.698 186.0640000000001Q429.698 193.8520000000001 421.823 193.8520000000001T414.037 186.0650000000001Q414.037 150.365 439.237 125.2550000000001T499.9589999999999 100.0550000000001zM989.238 881.315Q993.088 876.415 992.913 869.853T987.751 858.828L73.76 66.895Q68.86 62.958 62.21 63.483T51.798 68.8199999999999L10.762 115.718Q6.825 120.618 7.087 127.18T12.249 137.68L102.981 216.3399999999999Q93.706 231.9139999999999 93.706 248.54Q118.118 269.0129999999999 138.154 291.5T179.714 349.86T216.026 427.207T240.438 527.827T249.974 654.787Q249.974 728.983 307.1090000000001 792.681T456.9920000000001 870.1179999999999Q453.1420000000001 879.393 453.1420000000001 889.105Q453.1420000000001 908.705 466.792 922.355T499.953 936T533.203 922.352T546.851 889.102Q546.851 879.392 542.915 870.116Q603.463 861.279 649.8349999999999 829.78T722.108 752.87L926.237 930.138Q931.137 934.075 937.7 933.55T948.2 928.213z" />
    <glyph glyph-name="bell"
      unicode="&#xF13B;"
      horiz-adv-x="1000" d=" M508.9 -10.4Q508.9 -1.5 500 -1.5Q467.1 -1.5 443.4 22.2T419.6 78.9000000000001Q419.6 87.8000000000001 410.7 87.8000000000001T401.8 78.9000000000001Q401.8 38.1000000000001 430.5 9.4000000000001T500 -19.3999999999999Q508.9 -19.3999999999999 508.9 -10.3999999999999zM964.3 150.3Q964.3 121.3 943.1 100.0999999999999T892.8999999999999 78.8999999999999H642.8999999999999Q642.8999999999999 19.6999999999998 600.9999999999999 -22.1000000000001T500 -64T399 -22.1T357.1 78.9H107.1Q78.1 78.9 56.9 100.1T35.7 150.3000000000001Q63.6 173.7000000000001 86.5 199.4000000000001T133.9 266.1000000000002T175.5 354.5000000000001T203.4 469.5000000000001T214.3 614.6000000000001Q214.3 699.4000000000001 279.6 772.2000000000002T450.9 860.7000000000002Q446.4000000000001 871.3000000000002 446.4000000000001 882.4000000000001Q446.4000000000001 904.8000000000002 462.1 920.4T500 936T537.9 920.4T553.6 882.4Q553.6 871.3 549.1 860.7Q655.1 845 720.4000000000001 772.2T785.7 614.6Q785.7 537 796.6 469.5T824.5 354.5T866.1 266.1T913.5 199.4T964.3 150.3z" />
    <glyph glyph-name="bicycle"
      unicode="&#xF13C;"
      horiz-adv-x="1000" d=" M330.715 435.96H194.447Q177.102 435.96 169.48 451.206T172.28 480.2959999999999L253.9480000000001 589.1859999999999Q225.7140000000001 602.6409999999998 194.448 602.6409999999998Q137.124 602.6409999999998 96.368 561.887T55.534 463.8069999999999T96.368 365.6509999999999T194.448 324.8939999999999Q244.3810000000001 324.8939999999999 282.5700000000001 356.3169999999999T330.7150000000001 435.9619999999999zM249.981 491.573H330.717Q322.939 528.44 298.207 555.818zM458.351 491.573L583.341 658.2529999999999H374.9700000000001L332.0370000000001 600.9300000000001Q377.615 556.207 386.7150000000001 491.573H458.349zM944.469 463.806Q944.469 521.0509999999999 903.635 561.886T805.555 602.641Q779.5 602.641 753.055 592.221L828.578 479.3639999999999Q835.111 469.4079999999999 832.934 458.1299999999999T821.189 440.784Q814.656 435.962 805.555 435.962Q790.3879999999999 435.962 782.5329999999999 448.562L707.01 561.4200000000001Q666.643 520.197 666.643 463.808Q666.643 406.485 707.4780000000001 365.651T805.5580000000001 324.895T903.636 365.651T944.47 463.807zM1000.003 463.806Q1000.003 383.461 942.913 326.371T805.557 269.361T668.2 326.37T611.11 463.807Q611.11 505.885 628.3000000000001 543.452T675.82 608.3199999999999L647.586 650.865L494.36 447.315Q486.583 435.96 472.194 435.96H386.714Q376.759 364.793 322.081 317.036T194.448 269.358Q114.18 269.358 57.091 326.3699999999999T0 463.805T57.09 601.162T194.446 658.2520000000001Q243.913 658.2520000000001 287.78 634.374L347.203 713.7860000000001H249.98Q238.702 713.7860000000001 230.458 722.0310000000001T222.213 741.5550000000001T230.458 761.0770000000001T249.98 769.3220000000001H416.66V713.7890000000001H605.507L568.5619999999999 769.3230000000001H472.1939999999999Q460.9159999999999 769.3230000000001 452.6719999999999 777.5690000000001T444.4269999999999 797.0910000000001T452.6719999999999 816.613T472.1939999999999 824.8570000000001H583.34Q597.65 824.8570000000001 606.3620000000001 812.724L722.2520000000001 639.124Q761.7640000000001 658.258 805.552 658.258Q885.898 658.258 942.91 601.1680000000001T1000 463.806z" />
    <glyph glyph-name="binoculars"
      unicode="&#xF13D;"
      horiz-adv-x="1000" d=" M392.9 757.4V328.9Q392.9 314.3 382.3 303.7T357.1 293.0999999999999V-28.3000000000001Q357.1 -42.8000000000001 346.5 -53.4000000000001T321.3999999999999 -64.0000000000001H35.7Q21.2 -64.0000000000001 10.6 -53.4000000000001T0 -28.3V257.4L139 744.5999999999999Q142.9 757.4 156.3 757.4H392.9zM571.4 757.4V364.6H428.6V757.4H571.4000000000001zM1000 257.4V-28.3Q1000 -42.8 989.4 -53.4T964.3 -64H678.6Q664.1 -64 653.5 -53.4T642.9 -28.3V293.1Q628.3 293.1 617.6999999999999 303.7000000000001T607.0999999999999 328.9000000000001V757.4H843.8Q857.0999999999999 757.4 861 744.6zM410.7 918.1V793.1H214.3V918.1Q214.3 926 219.3 931T232.1 936H392.9000000000001Q400.7000000000001 936 405.7000000000001 931T410.7000000000001 918.1zM785.7 918.1V793.1H589.3V918.1Q589.3 926 594.3 931T607.0999999999999 936H767.8999999999999Q775.6999999999998 936 780.6999999999998 931T785.6999999999998 918.1z" />
    <glyph glyph-name="birthday-cake"
      unicode="&#xF13E;"
      horiz-adv-x="1000" d=" M1000 150.3V-64H0V150.3Q25.1 150.3 47.4 158.0999999999999T80.4 173.3999999999999T106.6 194.3999999999999Q123.3 209.3999999999999 135.3 215.5999999999999T166.9 221.6999999999999T197.8 215.5999999999999T227.1 194.3999999999999Q243.3 180.3999999999999 253.3 173.1999999999998T285.7 158.0999999999998T333.7 150.2999999999999Q358.8 150.2999999999999 381.1 158.3999999999999T413.5 173.3999999999999T440.3 194.3999999999999Q451.9999999999999 204.9999999999999 458.4 209.3999999999999T475.7 217.7999999999999T500 221.6999999999998Q519.5 221.6999999999998 531.5 215.5999999999998T560.3 194.3999999999998Q575.9 180.9999999999998 586.5 173.3999999999998T619.4 158.0999999999998T666.9 150.2999999999999T714.3 158.0999999999998T747.1999999999999 173.3999999999998T773.4 194.3999999999998Q790.1999999999999 209.3999999999998 802.1999999999999 215.5999999999998T833.6999999999999 221.6999999999998Q852.6999999999999 221.6999999999998 864.6999999999999 215.5999999999998T893.4 194.3999999999998Q909 180.9999999999998 919.6 173.3999999999998T952.6 158.0999999999998T1000 150.2999999999999zM1000 328.9V221.6999999999999Q980.5 221.6999999999999 969 227.9T939.7 249.1Q923.5 263 913.5 270.3000000000001T881.1 285.3000000000001T833.7 293.1Q808 293.1 785.7 285.3000000000001T753.3000000000001 270.3000000000001T727.1 249.1Q714.8000000000001 238.5 708.7 234T691.4000000000001 225.6T666.9000000000001 221.7000000000001Q647.3000000000001 221.7000000000001 635.3000000000001 227.9000000000001T606.6 249.1000000000002Q590.4 263.0000000000001 580.4 270.3000000000002T548 285.3000000000002T500 293.1000000000002Q474.9 293.1000000000002 452.6 285.1000000000002T420.2 270T393.4 249.1Q381.7 238.5 375.3 234T358 225.6T333.7 221.7000000000001Q314.2 221.7000000000001 302.2 227.9000000000001T273.3999999999999 249.1000000000002Q257.7999999999999 262.5000000000001 247.2 270.0000000000001T214.2999999999999 285.3000000000001T166.8999999999999 293.1Q141.1999999999999 293.1 118.8999999999999 285.3000000000001T86.4999999999999 270.3000000000001T60.2999999999999 249.1Q43.5 234 31.5 227.9T0 221.7000000000001V328.9Q0 373.5 31.2 404.7T107.1 436H142.9V686H285.7000000000001V436H428.6V686H571.4000000000001V436H714.3000000000001V686H857.1000000000001V436H892.9000000000001Q937.5000000000002 436 968.8 404.7000000000001T1000.0000000000002 328.9000000000001zM285.7 811Q285.7 768 265.6 744.9T214.3 721.7Q184.7 721.7 163.8 742.6T142.9 793.1Q142.9 809.3000000000001 148.2 821.6T161.3 840.6T178.6 856.2T195.9 873.8000000000001T209 898.6T214.3 936Q235.5 936 260.6 894.7T285.7000000000001 811zM571.4 811Q571.4 768 551.3 744.9T500 721.7Q470.4 721.7 449.5 742.6T428.6 793.1Q428.6 809.3 433.9000000000001 821.6T447.0000000000001 840.6T464.3000000000001 856.2T481.6000000000001 873.8T494.7000000000001 898.6T500 936Q521.2 936 546.3 894.7T571.4 811zM857.0999999999999 811Q857.0999999999999 768 837.0999999999999 744.9T785.6999999999999 721.7Q756.0999999999999 721.7 735.1999999999999 742.6T714.3 793.1Q714.3 809.3000000000001 719.5999999999999 821.6T732.6999999999999 840.6T750 856.2T767.3 873.8T780.4 898.6T785.7 936Q806.9000000000001 936 832 894.7T857.1 811z" />
    <glyph glyph-name="bitbucket-square"
      unicode="&#xF13F;"
      horiz-adv-x="1000" d=" M473.2 450.5Q473.2 474.5 450.3 487.3T407.4000000000001 487.9Q383.4000000000001 476.7 383.6 447.4000000000001T407.9000000000001 408.1Q429.7000000000001 395.3000000000001 453.1 410.3000000000001T473.2 450.5000000000001zM517.9 459.4Q522.3 422.6 497.8 391.9T436.4 357.9T370 380.2T338.7 443.3Q337.6 470.6 353 495.1999999999999T393.4 530.8999999999999Q432.5 548.1999999999999 472.4 525.3T517.9 459.3999999999999zM613.8 677.5999999999999Q602.6999999999999 665.9 584 658.7T554.4 649.7T519 645.3Q432.5 634.1 338.2 645.3Q313.6 648.6 303 650.6T273.7 659.5T243.3 677.6Q250.6 688.2 263.4 694.9000000000001T285.7 703.6T311.9 708.3Q422.4 727.9 539.5999999999999 708.9Q557.9999999999999 706.1 568.0999999999999 704.1T592.0999999999999 695.2T613.8 677.5999999999999zM637.3 261.3Q637.3 265.2 640.3 276.0999999999999T642 294T632.3 303.2000000000001Q542.4 244 428.6 244T224.3 303.2000000000001L217.6 299.8000000000001L214.8 293.1Q229.4 207.2000000000001 237.7 176Q264 130.8 351.6 115.7000000000001Q490.5 90 590.4000000000001 145.3000000000001Q609.4000000000001 155.9000000000001 617.7 174.0000000000001T630.3000000000001 221.7000000000002T637.3000000000001 261.3000000000002zM709.8 648.0999999999999Q714.8 677.5999999999999 705.4 689.9Q681.4 720.5999999999999 618.9 739Q498.3 774.2 347.1 759.0999999999999Q273.4 752.4 221 733.4Q199.8 725.0999999999999 187.8 719.5T161.6 700.5T145.1 670.4Q149.6 632.4 155.7 593.4T171.9 497.9T185.3 421.5Q185.8 418.7000000000001 188.1 404.2000000000001T192 384.1T198.7 369T210.9 353.4Q269.5 308.8 369.4 297.6Q514 282 615 332.8Q628.3 340 637 345.5999999999999T654.3 361.8T665.1999999999999 384.0999999999999Q691.9999999999999 533.0999999999999 709.8 648.0999999999999zM857.0999999999999 703.9V168.1Q857.0999999999999 101.7000000000001 809.9999999999999 54.6T696.3999999999999 7.4H160.7Q94.3 7.4 47.2 54.6T0 168.1V703.9Q0 770.3 47.2 817.4T160.7 864.6H696.4000000000001Q762.8000000000001 864.6 810.0000000000001 817.4T857.1000000000001 703.9z" />
    <glyph glyph-name="bitbucket"
      unicode="&#xF140;"
      horiz-adv-x="1000" d=" M454.8 456.6Q459.3 421.5 426.6 400.3000000000001T364.4000000000001 396.9000000000001Q342.6 406.4000000000001 334.5000000000001 429.3000000000001T334.3000000000001 475.1000000000001T363.3000000000001 507.4000000000001Q383.4000000000001 517.5000000000001 403.7000000000001 514.1000000000001T439.5000000000001 494.3000000000001T454.8000000000001 456.6000000000001zM516.7 468.4Q508.9 528.1 453.7 559.9000000000001T343.8000000000001 567.1Q308.6000000000001 551.5 287.7000000000001 517.8T268.4000000000001 445.5Q270.6 394.7000000000001 311.7000000000001 359T404.0000000000001 327.7000000000001Q454.8000000000001 332.2000000000001 488.8000000000001 374.6T516.7 468.4zM650.1 770.8Q639 785.9 618.9 795.7T586.5 807.9T546.9 814.9Q384.5 841.1 231 813.8Q207 809.9 194.2 807.1T163.5 794.8T135.6 770.8Q152.3 755.2 178 745.4T219 733.2T267.9 726.7Q395.1 710.6 517.9 726.2Q553 730.6 567.8 732.9T608.3 744.9T650.0999999999999 770.8zM681.9 193.3Q677.5 178.6999999999999 673.3 150.5999999999999T665.5 103.6999999999999T649.6 64.5999999999999T617.2 33.0999999999999Q569.2 6.3 511.4 -6.8000000000001T398.7000000000001 -19.1T286.3000000000001 -8.8000000000001Q260.6000000000001 -4.3000000000001 240.8000000000001 1.3T198.1000000000001 16.4T157.4000000000001 40.6T128.3000000000001 75Q114.4000000000001 128.5 96.5000000000001 237.9L99.9000000000001 246.8L109.9000000000001 251.8Q234.4000000000001 169.3 392.6000000000001 169.3T675.8000000000001 251.8Q687.5000000000001 248.5 689.2 239T686.4000000000001 213.9T681.9000000000001 193.3zM782.9 729.5Q768.4 636.3 721 364Q718.2 347.3 705.9 332.8T681.6 310.4T651.2 293.1Q510.6 222.8 310.8 244Q172.4 259.1 91 321.6Q82.6 328.3000000000001 76.7 336.4T67.2 355.9T62.2 374.9T58.9 396.9T55.8 416.5Q50.8 444.4 41 500.2T25.4 590.3T12.3 672.5999999999999T0 760.8Q1.7 775.3 9.8 787.8T27.3 808.8T52.5 825.5T78.1 838.1T104.9 848.4Q174.7 874.1 279.6 884.1Q491.1 904.8 656.8 856.2Q743.3 830.5 776.8 788.1Q785.6999999999999 777 786 759.7T782.9 729.5z" />
    <glyph glyph-name="bitcoin"
      unicode="&#xF141;"
      horiz-adv-x="1000" d=" M651.2 578.9Q661.3000000000001 477.3 578.1 434.9Q643.4 419.3 675.8000000000001 377.4T700.9 258Q697 218.4 682.8 188.2000000000001T646.8 138.6T592.5999999999999 105.9T524.8 86.6999999999999T443.6 78.3V-64H357.7V76.1Q313.0999999999999 76.1 289.5999999999999 76.6V-64H203.6999999999999V78.3Q193.5999999999999 78.3 173.4999999999999 78.5999999999999T142.8999999999999 78.8999999999999H31.2L48.5 181H110.5Q138.4 181 142.9 209.4V433.8H151.8Q148.4 434.3 142.9 434.3V594.5Q135.6 632.4 93.2 632.4H31.2V723.9L149.6 723.4Q185.3 723.4 203.7 723.9V864.6H289.6V726.7Q335.4000000000001 727.9 357.7000000000001 727.9V864.6H443.6V723.9Q487.7 720 521.8000000000001 711.4T584.8000000000001 686.3T630.9000000000001 642.8T651.2 578.9000000000001zM531.3 274.7000000000001Q531.3 294.8000000000001 522.9 310.4000000000001T502.2 336.1000000000002T470.1 353.1000000000002T433.6 363.5000000000001T392.3 368.5000000000001T353.8 370.2000000000002T317.8 369.6000000000002T291.3 369.0000000000001V180.4000000000001Q295.8 180.4000000000001 311.9 180.1000000000001T338.7 179.9000000000001T368.3 180.7000000000001T400.9000000000001 182.9000000000001T432.8 187.7000000000001T463.7 195.5T490.2 207.2000000000001T512.3 223.9000000000001T525.9 246.3000000000001T531.3 274.7000000000001zM491.6 540.4000000000001Q491.6 558.8 484.7 573T467.6 596.4000000000001T440.8 612.1T410.2 621.3T375.8 625.7T343.5 627.0999999999999T313.3 626.5999999999999T291.3 626.3V455Q294.1 455 310.5 454.7T336.5 454.7T364.3999999999999 455.8T395.0999999999999 458.9T423.7999999999999 465.0000000000001T450.8999999999999 475.3000000000001T471.4999999999999 490.4000000000001T486.6 511.9000000000001T491.6 540.4000000000001z" />
    <glyph glyph-name="black-tie"
      unicode="&#xF142;"
      horiz-adv-x="1000" d=" M0 864.6H857.1V7.4H0V864.6zM605.5 242.4L482.1 594.5L605.5 760.2H251.7L375 594.5L251.7 242.4L428.6 72.7000000000001z" />
    <glyph glyph-name="bluetooth-b"
      unicode="&#xF143;"
      horiz-adv-x="1000" d=" M332.6 141.9L429.1 237.9L332.6 333.9V141.9zM332.6 538.0999999999999L429.1 634.0999999999999L332.6 730.0999999999999V538.0999999999999zM350.4 436L549.0999999999999 237.3L248.3 -64V332.8L82.6 167.6L22.3 227.9L229.9 436L22.3 644.1L82.6 704.4000000000001L248.3 539.2V936L549.1 634.7z" />
    <glyph glyph-name="bluetooth"
      unicode="&#xF144;"
      horiz-adv-x="1000" d=" M469.3 348.4L551.9 265.8L468.8 182.6999999999999zM468.8 689.3L551.9 606.1999999999999L469.3 523.5999999999999zM396.2000000000001 6.3L655.1 265.2L484.4 436L655.0999999999999 606.8L396.2 865.7V524.7L253.9 667L202 615.1L380.6 436L202 256.9L253.9 205L396.2000000000001 347.3V6.3zM797.4 436Q797.4 319.4 779.6 232T730.7 88.6T652.3000000000001 -2.1T551.1 -50.3000000000001T428.6 -64.0000000000001T306.1 -50.3000000000001T204.8 -2.1T126.4 88.6T77.6 232T59.7 436T77.6 640T126.4 783.4T204.8 874.1T306.1 922.3T428.6 936T551.1 922.3T652.3000000000001 874.1T730.7 783.4T779.6 640T797.4 436z" />
    <glyph glyph-name="bold"
      unicode="&#xF145;"
      horiz-adv-x="1000" d=" M309.7 87.2000000000001Q351 69.4000000000001 387.8 69.4000000000001Q597.6999999999999 69.4000000000001 597.6999999999999 256.3000000000001Q597.6999999999999 319.9000000000001 574.8 356.8000000000001Q559.6999999999999 381.3000000000001 540.5 398.1T502.8 424T457.9 438T411.0000000000001 443.8T358.3000000000001 444.9000000000001Q317.5000000000001 444.9000000000001 301.9000000000001 439.3Q301.9000000000001 409.8 301.6000000000001 350.6T301.3000000000001 262.5Q301.3000000000001 258 300.8000000000001 224.8T300.5000000000001 170.9T303.0000000000001 124.3T309.7000000000001 87.1999999999999zM301.9 503.5000000000001Q325.3 499.6000000000001 362.7 499.6000000000001Q408.5 499.6000000000001 442.5 506.9000000000001T503.9 531.7T545.5 581.6000000000001T559.7 660.9000000000001Q559.7 700.0000000000001 543.5 729.2T499.4 775T439.2 799.3T370 807.1Q342.1 807.1 297.4 799.8Q297.4 771.9 299.7 715.6T301.9 630.8Q301.9 615.7 301.6 586.1T301.3 542Q301.3 516.4 301.9 503.5zM0 7.4L1.1 59.9Q9.5 62.1 48.5 68.8T107.7 83.9Q111.6 90.6 114.7 98.9T119.4 117.6T122.5 135.8000000000001T124.2 156.7000000000001T124.4 175.7000000000001V212.2000000000001Q124.4 760.2 112.2 784.2Q109.9 788.7 99.9 792.3000000000001T75.1 798.4000000000001T47.4 802.4000000000001T20.4 804.9000000000001T3.3 806.5L1.1 852.9Q55.8 854 190.8 859.3T399 864.6Q411.8 864.6 437.2 864.3T474.9 864Q514 864 551.1 856.8T622.8000000000001 833.3T683.0000000000001 793.7T724.3000000000001 735.4T740.0000000000001 658.7Q740.0000000000001 629.5999999999999 730.7000000000002 605.4T709 565.2T673 533.0999999999999T632.3 507.9999999999999T585.4 485.6999999999999Q671.3 466.0999999999999 728.5 410.9T785.7 272.5Q785.7 216.7000000000001 766.2 172.3T714 99.5T637 51.8T545.8 24.6999999999999T447.5 16.9Q423 16.9 373.9 18.6T300.2 20.3000000000001Q241.1 20.3000000000001 128.9 14.1T0 7.4z" />
    <glyph glyph-name="bomb"
      unicode="&#xF146;"
      horiz-adv-x="1000" d=" M318.6 607.3Q313.1 621.3 299.7000000000001 626.8T272.3000000000001 626.8Q212.1000000000001 602.3 165.7000000000001 556T94.9 449.4Q89.3 435.4 94.9 422T114.4 403.1Q121.7 400.3000000000001 127.8 400.3000000000001Q151.2 400.3000000000001 161.3 422.6Q180.2 469.5 216.2 505.5T299.1 560.4Q313.1 566.5999999999999 318.6 580T318.6 607.3zM844.3 806L870 780.3L733.8 644.7L771.8 606.8000000000001Q782.4 596.2 782.4 581.4000000000001T771.8 556L736 520.3Q785.7 430.4 785.7 328.9Q785.7 249.1 754.7 176.2000000000001T671 50.7T545.5 -33T392.9 -64T240.2 -33T114.7 50.7T31 176.2000000000001T0 328.9T31 481.5T114.7 607T240.2 690.7T392.9 721.7Q494.4 721.7 584.3 672L620 707.8Q630.6 718.4 645.4 718.4T670.8 707.8L708.6999999999999 669.8zM848.8 837.2Q843.1999999999999 831.6 836.5 831.6Q829.2 831.6 823.7 837.2L772.9000000000001 887.5Q767.9000000000001 893 767.9000000000001 900.3T772.9000000000001 913.1Q778.5000000000001 918.1 785.7 918.1T798.5 913.1L848.8 862.3Q854.4 857.3 854.4 849.8T848.8 837.2zM977.1 708.9Q970.9999999999998 703.9 964.3 703.9T951.5 708.9L901.2 759.7Q895.6 764.7 895.6 772.2T901.2 784.8Q906.3 790.4 913.8 790.4T926.3 784.8L977.1 734.5Q982.1 729 982.1 721.7T977.1 708.9zM1000 811Q1000 803.2 995 798.2T982.1 793.1H928.6Q920.8 793.1 915.7 798.2T910.7 811T915.7 823.8T928.6 828.9H982.1Q990 828.9 995 823.8T1000 811zM892.9 918.1V864.6Q892.9 856.8 887.8 851.7T875 846.7T862.2 851.7T857.1 864.6V918.1Q857.1 926 862.2 931T875 936T887.8 931T892.9 918.1zM977.1 887.5L926.3 837.2Q920.8 831.6 914.1 831.6Q906.8 831.6 901.2 837.2Q895.6 842.2 895.6 849.8T901.2 862.3L951.5 913.1Q957 918.1 964.3 918.1T977.1 913.1Q982.1 907.5 982.1 900.3T977.1 887.5z" />
    <glyph glyph-name="book"
      unicode="&#xF147;"
      horiz-adv-x="1000" d=" M914.6 669.3Q936.9 637.5 924.7 597.3L771.2 91.7000000000001Q760.6 56 728.5 31.7T660.2 7.4000000000001H145.1Q102.1 7.4000000000001 62.2 37.3000000000001T6.7 110.7000000000001Q-6.7 148.1 5.6 181.5Q5.6 183.8 7.3 196.6T9.5 217.2000000000001Q10 221.7000000000001 7.8 229.2000000000001T6.1 240.1Q7.3 246.3000000000001 10.6 251.8000000000001T19.8 265.0000000000001T29 278.1000000000002Q41.9 299.3000000000002 54.1 329.1000000000002T70.9 380.2000000000002Q72.5 385.8000000000002 71.1 396.9000000000002T70.9 412.6000000000003Q72.5 418.7000000000003 80.4 428.2000000000003T89.8 441.0000000000003Q101.6 461.1000000000003 113.3 492.4000000000003T127.2 542.6000000000003Q127.8 547.6000000000003 125.8 560.4000000000003T126.1 576.1000000000003Q128.3 583.3000000000002 138.4 593.1000000000003T150.7 605.6000000000003Q161.3 620.2000000000003 174.4 652.8000000000002T189.7 706.6000000000003Q190.3 711.1000000000003 188.1 720.9000000000003T186.9 735.7000000000003Q188.1 740.1000000000003 192 745.7000000000003T202 758.5000000000002T211.5 770.3000000000003Q216 777.0000000000002 220.7 787.3000000000003T229.1 806.8000000000003T238.0000000000001 826.9000000000003T248.9000000000001 844.8000000000003T263.7000000000001 857.9000000000003T283.8000000000001 864.3000000000003T310.3000000000001 861.2000000000003L309.7000000000001 859.5000000000003Q330.9000000000001 864.6000000000003 338.2000000000001 864.6000000000003H762.8000000000001Q804.1 864.6000000000003 826.5000000000001 833.3000000000003T836.5000000000001 760.8000000000003L683.6 255.2000000000001Q663.5 188.8000000000001 643.7 169.5T572 150.3H87.1Q72 150.3 65.8 141.9Q59.7 133 65.3 117.9Q78.7 78.9 145.6 78.9H660.7Q676.9000000000001 78.9 692 87.5T711.5 110.7000000000001L878.9 661.4000000000001Q882.8 673.7 881.6999999999999 693.3000000000001Q902.9 684.9000000000001 914.6 669.3000000000001zM320.9 668.1Q318.6 660.9000000000001 322 655.6T333.1 650.3H672.4000000000001Q679.7 650.3 686.7 655.6T695.9000000000001 668.1L707.6000000000001 703.9000000000001Q709.8000000000002 711.1 706.5000000000001 716.4000000000001T695.3000000000001 721.7H356Q348.8 721.7 341.8 716.4000000000001T332.6 703.9000000000001zM274.6 525.3Q272.3 518 275.7 512.7T286.8 507.4H626.1Q633.4 507.4 640.3000000000001 512.7T649.6 525.3L661.3000000000001 561Q663.5000000000001 568.3 660.2 573.6T649 578.9000000000001H309.7Q302.5 578.9000000000001 295.5 573.6T286.3 561z" />
    <glyph glyph-name="bookmark-o"
      unicode="&#xF148;"
      horiz-adv-x="1000" d=" M642.9 793.1H71.4V100.1L307.5 326.6L357.1 374.1L406.8 326.6L642.9 100.1V793.1zM649.6 864.6Q662.4 864.6 674.1 859.5Q692.5 852.3 703.4 836.7T714.3 802.1V82.8000000000001Q714.3 63.8000000000001 703.4 48.2T674.1 25.3000000000001Q663.5 20.8000000000001 649.6 20.8000000000001Q622.8000000000001 20.8000000000001 603.2 38.7L357.1 275.3L111 38.7Q91 20.3000000000001 64.7 20.3000000000001Q51.9 20.3000000000001 40.2 25.3000000000001Q21.8 32.5000000000001 10.9 48.2T0 82.8V802.1Q0 821 10.9 836.7T40.2 859.5Q51.9 864.6 64.7 864.6H649.6z" />
    <glyph glyph-name="bookmark"
      unicode="&#xF149;"
      horiz-adv-x="1000" d=" M649.6 864.6Q662.4 864.6 674.1 859.5Q692.5 852.3 703.4 836.7T714.3 802.1V82.8000000000001Q714.3 63.8000000000001 703.4 48.2T674.1 25.3000000000001Q663.5 20.8000000000001 649.6 20.8000000000001Q622.8000000000001 20.8000000000001 603.2 38.7L357.1 275.3L111 38.7Q91 20.3000000000001 64.7 20.3000000000001Q51.9 20.3000000000001 40.2 25.3000000000001Q21.8 32.5000000000001 10.9 48.2T0 82.8V802.1Q0 821 10.9 836.7T40.2 859.5Q51.9 864.6 64.7 864.6H649.6z" />
    <glyph glyph-name="briefcase"
      unicode="&#xF14A;"
      horiz-adv-x="1000" d=" M357.1 793.1H642.9000000000001V864.6H357.1V793.1zM1000 436V168.1Q1000 131.3000000000001 973.8 105.1T910.7 78.9H89.3Q52.5 78.9 26.2 105.1T0 168.1V436H375V346.7000000000001Q375 332.2000000000001 385.6 321.6T410.7000000000001 311H589.3000000000001Q603.8000000000001 311 614.4000000000001 321.6T625.0000000000001 346.7000000000001V436H1000.0000000000002zM571.4 436V364.6H428.6V436H571.4000000000001zM1000 703.9V489.6H0V703.9Q0 740.7 26.2 766.9T89.3 793.1H285.7V882.4Q285.7 904.8 301.3 920.4T339.3 936H660.7Q683 936 698.7 920.4T714.3000000000001 882.4V793.1H910.7Q947.5 793.1 973.8 766.9T1000.0000000000002 703.9z" />
    <glyph glyph-name="bug"
      unicode="&#xF14B;"
      horiz-adv-x="1000" d=" M910.7 400.3Q910.7 385.8 900.1 375.2T875 364.6H750Q750 269.1 712.6 202.7000000000001L828.7 86.1Q839.3000000000001 75.5 839.3000000000001 61T828.7 35.9Q818.6 25.3 803.6 25.3T778.5 35.9L668 145.8Q665.2 143 659.6 138.5999999999999T636.2 122.6999999999999T599.9000000000001 102.3T554.1000000000001 86.0999999999999T500.0000000000001 78.8999999999999V578.8999999999999H428.6000000000002V78.8999999999999Q400.1000000000002 78.8999999999999 371.9000000000002 86.3999999999999T323.4000000000002 104.7999999999998T286.6000000000002 126.5999999999998T262.3000000000002 144.6999999999998L253.9000000000001 152.4999999999998L151.8 37Q140.6 25.3 125 25.3Q111.6 25.3 101 34.1999999999999Q90.4 44.3 89.6 58.9999999999999T98.2 84.9999999999999L210.9 211.6999999999999Q178.6 275.3 178.6 364.5999999999999H53.6Q39.1 364.5999999999999 28.5 375.2T17.9 400.3T28.5 425.4T53.6 436H178.6V600.1L82 696.6Q71.4 707.2 71.4 721.7T82 746.8T107.1 757.4T132.3 746.8L228.8 650.3H699.8L796.3 746.8Q806.9 757.4 821.4 757.4T846.5 746.8T857.1 721.7T846.5 696.6L750 600.1V436H875Q889.5 436 900.1 425.4T910.7 400.3zM642.9 721.7H285.7Q285.7 795.9 337.9 848.1T464.3 900.3T590.6999999999999 848.1T642.9 721.7z" />
    <glyph glyph-name="building-o"
      unicode="&#xF14C;"
      horiz-adv-x="1000" d=" M214.3 203.9V168.1Q214.3 160.9 209 155.6T196.4 150.3000000000001H160.7Q153.5 150.3000000000001 148.2 155.6T142.9 168.1V203.9Q142.9 211.1 148.2 216.4T160.7 221.6999999999999H196.4Q203.7 221.6999999999999 209 216.4T214.3 203.9zM214.3 346.7000000000001V311Q214.3 303.7000000000001 209 298.4T196.4 293.1H160.7Q153.5 293.1 148.2 298.4T142.9 311V346.7000000000001Q142.9 354 148.2 359.3000000000001T160.7 364.6H196.4Q203.7 364.6 209 359.3000000000001T214.3 346.7000000000001zM357.1 346.7000000000001V311Q357.1 303.7000000000001 351.8 298.4T339.3 293.1H303.6Q296.3 293.1 291 298.4T285.7 311V346.7000000000001Q285.7 354 291 359.3000000000001T303.6 364.6H339.3Q346.5 364.6 351.8 359.3000000000001T357.1 346.7000000000001zM214.3 489.6V453.9Q214.3 446.6 209 441.3T196.4 436H160.7Q153.5 436 148.2 441.3T142.9 453.9V489.6Q142.9 496.8 148.2 502.1T160.7 507.4H196.4Q203.7 507.4 209 502.1T214.3 489.6zM642.9000000000001 203.9000000000001V168.1000000000001Q642.9000000000001 160.9000000000001 637.6000000000001 155.6000000000001T625.0000000000001 150.3000000000002H589.3000000000001Q582.0000000000001 150.3000000000002 576.7 155.6000000000001T571.4000000000001 168.1000000000001V203.9000000000001Q571.4000000000001 211.1000000000001 576.7 216.4000000000001T589.3000000000001 221.7000000000001H625Q632.3 221.7000000000001 637.6 216.4000000000001T642.9 203.9000000000001zM500 346.7000000000001V311Q500 303.7000000000001 494.7 298.4T482.1 293.1H446.4Q439.2 293.1 433.9 298.4T428.6 311V346.7000000000001Q428.6 354 433.9 359.3000000000001T446.4 364.6H482.1Q489.4 364.6 494.7 359.3000000000001T500 346.7000000000001zM357.1 489.6V453.9Q357.1 446.6 351.8 441.3T339.3 436H303.6Q296.3 436 291 441.3T285.7 453.9V489.6Q285.7 496.8 291 502.1T303.6 507.4H339.3Q346.5 507.4 351.8 502.1T357.1 489.6zM214.3 632.4V596.7Q214.3 589.5 209 584.2T196.4 578.9H160.7Q153.5 578.9 148.2 584.2T142.9 596.7V632.4Q142.9 639.7 148.2 645T160.7 650.3H196.4Q203.7 650.3 209 645T214.3 632.4zM642.9000000000001 346.7000000000001V311Q642.9000000000001 303.7000000000001 637.6000000000001 298.4T625.0000000000001 293.1H589.3000000000001Q582.0000000000001 293.1 576.7 298.4T571.4000000000001 311V346.7000000000001Q571.4000000000001 354 576.7 359.3000000000001T589.3000000000001 364.6H625Q632.3 364.6 637.6 359.3000000000001T642.9 346.7000000000001zM500 489.6V453.9Q500 446.6 494.7 441.3T482.1 436H446.4Q439.2 436 433.9 441.3T428.6 453.9V489.6Q428.6 496.8 433.9 502.1T446.4 507.4H482.1Q489.4 507.4 494.7 502.1T500 489.6zM357.1 632.4V596.7Q357.1 589.5 351.8 584.2T339.3 578.9H303.6Q296.3 578.9 291 584.2T285.7 596.7V632.4Q285.7 639.7 291 645T303.6 650.3H339.3Q346.5 650.3 351.8 645T357.1 632.4zM214.3 775.3V739.6Q214.3 732.3 209 727T196.4 721.7H160.7Q153.5 721.7 148.2 727T142.9 739.6V775.3Q142.9 782.5 148.2 787.8T160.7 793.1H196.4Q203.7 793.1 209 787.8T214.3 775.3zM642.9000000000001 489.6V453.9Q642.9000000000001 446.6 637.6000000000001 441.3T625 436H589.3Q582 436 576.6999999999999 441.3T571.4 453.9V489.6Q571.4 496.8 576.6999999999999 502.1T589.3 507.4H625Q632.3 507.4 637.6 502.1T642.9 489.6zM500 632.4V596.7Q500 589.5 494.7 584.2T482.1 578.9H446.4Q439.2 578.9 433.9 584.2T428.6 596.7V632.4Q428.6 639.7 433.9 645T446.4 650.3H482.1Q489.4 650.3 494.7 645T500 632.4zM357.1 775.3V739.6Q357.1 732.3 351.8 727T339.3 721.7H303.6Q296.3 721.7 291 727T285.7 739.6V775.3Q285.7 782.5 291 787.8T303.6 793.1H339.3Q346.5 793.1 351.8 787.8T357.1 775.3zM642.9000000000001 632.4V596.7Q642.9000000000001 589.5 637.6000000000001 584.2T625.0000000000001 578.9H589.3000000000001Q582.0000000000001 578.9 576.7 584.2T571.4000000000001 596.7V632.4Q571.4000000000001 639.7 576.7 645T589.3000000000001 650.3H625Q632.3 650.3 637.6 645T642.9 632.4zM500 775.3V739.6Q500 732.3 494.7 727T482.1 721.7H446.4Q439.2 721.7 433.9 727T428.6 739.6V775.3Q428.6 782.5 433.9 787.8T446.4 793.1H482.1Q489.4 793.1 494.7 787.8T500 775.3zM642.9 775.3V739.6Q642.9 732.3 637.6 727T625 721.7H589.3Q582 721.7 576.6999999999999 727T571.4 739.6V775.3Q571.4 782.5 576.6999999999999 787.8T589.3 793.1H625Q632.3 793.1 637.6 787.8T642.9 775.3zM500 7.4H714.3V864.6H71.4V7.4H285.7000000000001V132.4Q285.7000000000001 139.6999999999999 291.0000000000001 145T303.6000000000001 150.3H482.1000000000001Q489.4000000000001 150.3 494.7000000000001 145T500.0000000000001 132.4V7.4zM785.7 900.3V-28.3000000000001Q785.7 -42.8000000000001 775.1 -53.4000000000001T750 -64H35.7Q21.2 -64 10.6 -53.4T0 -28.3V900.3Q0 914.8 10.6 925.4T35.7 936H750Q764.5 936 775.1 925.4T785.7 900.3z" />
    <glyph glyph-name="building"
      unicode="&#xF14D;"
      horiz-adv-x="1000" d=" M750 936Q764.5 936 775.1 925.4T785.7 900.3V-28.3000000000001Q785.7 -42.8000000000001 775.1 -53.4000000000001T750 -64H35.7Q21.2 -64 10.6 -53.4T0 -28.3V900.3Q0 914.8 10.6 925.4T35.7 936H750zM285.7 775.3V739.6Q285.7 731.8 290.7 726.7T303.6 721.7H339.3Q347.1 721.7 352.1 726.7T357.1 739.6V775.3Q357.1 783.1 352.1 788.1T339.3 793.1H303.6Q295.8 793.1 290.7 788.1T285.7 775.3zM285.7 632.4V596.7Q285.7 588.9 290.7 583.9T303.6 578.9H339.3Q347.1 578.9 352.1 583.9T357.1 596.7V632.4Q357.1 640.2 352.1 645.3T339.3 650.3H303.6Q295.8 650.3 290.7 645.3T285.7 632.4zM285.7 489.6V453.9Q285.7 446 290.7 441T303.6 436H339.3Q347.1 436 352.1 441T357.1 453.9V489.6Q357.1 497.4 352.1 502.4T339.3 507.4H303.6Q295.8 507.4 290.7 502.4T285.7 489.6zM285.7 346.7V311Q285.7 303.2000000000001 290.7 298.2000000000001T303.6 293.1H339.3Q347.1 293.1 352.1 298.2000000000001T357.1 311V346.7000000000001Q357.1 354.5 352.1 359.5T339.3 364.6H303.6Q295.8 364.6 290.7 359.5T285.7 346.7000000000001zM214.3 168.0999999999999V203.8999999999999Q214.3 211.6999999999998 209.3 216.6999999999998T196.4 221.6999999999998H160.7Q152.9 221.6999999999998 147.9 216.6999999999998T142.9 203.8999999999999V168.0999999999999Q142.9 160.3 147.9 155.3T160.7 150.3H196.4Q204.2 150.3 209.3 155.3T214.3 168.0999999999999zM214.3 310.9999999999999V346.7Q214.3 354.4999999999999 209.3 359.4999999999999T196.4 364.5999999999999H160.7Q152.9 364.5999999999999 147.9 359.4999999999999T142.9 346.7V311Q142.9 303.2000000000001 147.9 298.2000000000001T160.7 293.1H196.4Q204.2 293.1 209.3 298.2000000000001T214.3 311zM214.3 453.8999999999999V489.5999999999999Q214.3 497.3999999999999 209.3 502.3999999999999T196.4 507.3999999999999H160.7Q152.9 507.3999999999999 147.9 502.3999999999999T142.9 489.5999999999999V453.8999999999999Q142.9 445.9999999999999 147.9 440.9999999999999T160.7 435.9999999999999H196.4Q204.2 435.9999999999999 209.3 440.9999999999999T214.3 453.8999999999999zM214.3 596.6999999999998V632.3999999999999Q214.3 640.1999999999998 209.3 645.2999999999998T196.4 650.2999999999998H160.7Q152.9 650.2999999999998 147.9 645.2999999999998T142.9 632.3999999999999V596.6999999999998Q142.9 588.8999999999999 147.9 583.8999999999999T160.7 578.8999999999999H196.4Q204.2 578.8999999999999 209.3 583.8999999999999T214.3 596.6999999999998zM214.3 739.5999999999999V775.3Q214.3 783.0999999999999 209.3 788.0999999999999T196.4 793.0999999999999H160.7Q152.9 793.0999999999999 147.9 788.0999999999999T142.9 775.3V739.5999999999999Q142.9 731.8 147.9 726.6999999999999T160.7 721.6999999999999H196.4Q204.2 721.6999999999999 209.3 726.6999999999999T214.3 739.5999999999999zM500 25.3V132.4Q500 140.1999999999999 495 145.3T482.1 150.3H303.6Q295.8 150.3 290.7000000000001 145.3T285.7000000000001 132.4V25.3Q285.7000000000001 17.5 290.7000000000001 12.5T303.6 7.4H482.1Q490 7.4 495 12.5T500 25.3zM500 311V346.7000000000001Q500 354.5 495 359.5T482.1 364.6H446.4000000000001Q438.6 364.6 433.6 359.5T428.6 346.7000000000001V311Q428.6 303.2000000000001 433.6 298.2000000000001T446.4000000000001 293.1H482.1Q490 293.1 495 298.2000000000001T500 311zM500 453.9V489.6Q500 497.4 495 502.4T482.1 507.4H446.4000000000001Q438.6 507.4 433.6 502.4T428.6 489.6V453.9Q428.6 446 433.6 441T446.4000000000001 436H482.1Q490 436 495 441T500 453.9zM500 596.7V632.4Q500 640.2 495 645.3T482.1 650.3H446.4000000000001Q438.6 650.3 433.6 645.3T428.6 632.4V596.7Q428.6 588.9 433.6 583.9T446.4000000000001 578.9H482.1Q490 578.9 495 583.9T500 596.7zM500 739.6V775.3Q500 783.1 495 788.1T482.1 793.1H446.4000000000001Q438.6 793.1 433.6 788.1T428.6 775.3V739.6Q428.6 731.8 433.6 726.7T446.4000000000001 721.7H482.1Q490 721.7 495 726.7T500 739.6zM642.9 168.1V203.9Q642.9 211.6999999999999 637.8 216.6999999999999T625 221.6999999999999H589.3Q581.5 221.6999999999999 576.5 216.6999999999999T571.4 203.9V168.1Q571.4 160.3000000000001 576.5 155.3000000000001T589.3 150.3000000000001H625Q632.8 150.3000000000001 637.8 155.3000000000001T642.9 168.1zM642.9 311V346.7000000000001Q642.9 354.5 637.8 359.5T625 364.6H589.3Q581.5 364.6 576.5 359.5T571.4 346.7000000000001V311Q571.4 303.2000000000001 576.5 298.2000000000001T589.3 293.1H625Q632.8 293.1 637.8 298.2000000000001T642.9 311zM642.9 453.9V489.6Q642.9 497.4 637.8 502.4T625 507.4H589.3Q581.5 507.4 576.5 502.4T571.4 489.6V453.9Q571.4 446 576.5 441T589.3 436H625Q632.8 436 637.8 441T642.9 453.9zM642.9 596.7V632.4Q642.9 640.2 637.8 645.3T625 650.3H589.3Q581.5 650.3 576.5 645.3T571.4 632.4V596.7Q571.4 588.9 576.5 583.9T589.3 578.9H625Q632.8 578.9 637.8 583.9T642.9 596.7zM642.9 739.6V775.3Q642.9 783.1 637.8 788.1T625 793.1H589.3Q581.5 793.1 576.5 788.1T571.4 775.3V739.6Q571.4 731.8 576.5 726.7T589.3 721.7H625Q632.8 721.7 637.8 726.7T642.9 739.6z" />
    <glyph glyph-name="bullhorn"
      unicode="&#xF14E;"
      horiz-adv-x="1000" d=" M928.6 578.9Q958.1 578.9 979.1 557.9T1000 507.4T979.1 456.9T928.6 436V221.7000000000001Q928.6 192.7000000000001 907.4 171.5T857.1 150.3Q624.4 343.9 404 362.3Q371.7 351.7 353.2 325.5T335.9 269.4T358.3 217.8Q347.1 199.4 345.4 181.3T348.8 148.9T367.5 118.1999999999999T394.3 90.3T428.6 62.0999999999999Q412.4 29.6999999999999 366.4 15.8T272.3 9.4T198.7 40.4Q194.8 53.1999999999999 182.2 89.1999999999999T164.3 141.9T151.5 191.6T143.0999999999999 247.9T145.0999999999999 302.9T157.4 364.6H89.3Q52.5 364.6 26.2 390.8000000000001T0 453.9V561Q0 597.8 26.2 624.1T89.3 650.3H357.1Q599.9000000000001 650.3 857.1 864.6Q886.2 864.6 907.4 843.4T928.6 793.1V578.9000000000001zM857.1 241.8V774.2Q637.3 605.6 428.6 582.8V432.1Q639 408.7000000000001 857.1 241.8z" />
    <glyph glyph-name="bullseye"
      unicode="&#xF14F;"
      horiz-adv-x="1000" d=" M571.4 436Q571.4 376.8 529.6 335T428.6 293.1T327.6 335T285.7000000000001 436T327.6 537T428.6 578.9T529.6 537T571.4 436zM642.9 436Q642.9 524.7 580.1 587.5T428.6 650.3T277.1 587.5T214.3 436T277.1 284.5T428.6 221.7000000000001T580.1 284.5T642.9 436zM714.3 436Q714.3 317.7000000000001 630.5999999999999 234T428.5999999999999 150.3T226.5999999999999 234T142.8999999999999 436T226.5999999999999 638T428.5999999999999 721.7T630.5999999999999 638T714.3 436zM785.6999999999999 436Q785.6999999999999 508.5 757.3 574.7T681.0999999999999 688.5T567.1999999999999 764.7T428.5999999999999 793.1T289.8999999999999 764.7T176.0999999999999 688.5T99.8999999999999 574.7T71.4 436T99.9 297.3T176.1 183.5T289.9000000000001 107.3T428.6 78.9T567.2 107.3T681.1 183.5T757.3000000000001 297.3T785.7 436zM857.0999999999999 436Q857.0999999999999 319.4 799.6999999999999 220.9T643.6999999999999 64.9T428.5999999999999 7.4T213.3999999999999 64.9T57.4999999999999 220.9T0 436T57.5 651.1T213.4 807.1T428.6 864.6T643.7 807.1T799.7 651.1T857.1 436z" />
    <glyph glyph-name="bus"
      unicode="&#xF150;"
      horiz-adv-x="1000" d=" M214.3 257.4Q214.3 287 193.4 307.9T142.9 328.9T92.4 307.9T71.4 257.4T92.4 206.9T142.9 186T193.4 206.9T214.3 257.4zM785.7 257.4Q785.7 287 764.8000000000001 307.9T714.3000000000001 328.9T663.8000000000001 307.9T642.9000000000001 257.4T663.8000000000001 206.9T714.3000000000001 186T764.8000000000001 206.9T785.7 257.4zM760 478.4L719.9 692.7Q717.1 705.5 707.3 713.6T684.6999999999999 721.7H172.4Q159.6 721.7 149.8 713.6T137.3 692.7L97.1 478.4Q94.3 461.7 104.9 448.8T132.3 436H724.9Q741.6 436 752.1999999999999 448.8T759.9999999999999 478.4zM633.9 819.9Q633.9 831.1 626.1 838.9T607.1 846.7H250Q238.8 846.7 231 838.9T223.2 819.9T231 801T250 793.1H607.1Q618.3000000000001 793.1 626.1 801T633.9 819.9zM857.0999999999999 415.4V78.9H785.6999999999999V7.4Q785.6999999999999 -22.1 764.8 -43.1T714.3 -64T663.8 -43.1T642.9 7.4V78.9H214.3V7.4Q214.3 -22.1 193.4 -43.1T142.9 -64T92.4 -43.1T71.4 7.4V78.9H0V415.4Q0 477.9 14 539.8L71.4 793.0999999999999Q76.5 836.6999999999999 125.8 869.5999999999999T254.2 919.3T428.6 936T603 919.3T731.3 869.6T785.6999999999999 793.1L844.3 539.8Q857.0999999999999 482.9 857.0999999999999 415.4z" />
    <glyph glyph-name="buysellads"
      unicode="&#xF151;"
      horiz-adv-x="1000" d=" M510.6 330H346.5L428.6 637.5zM558.6 150.3H732.1L551.3 721.7H305.8L125 150.3H298.5L512.3 325.5zM857.1 703.9V168.1Q857.1 102.3000000000001 809.7 54.9T696.4000000000001 7.4H160.7Q94.9 7.4 47.4 54.9T0 168.1V703.9Q0 769.7 47.4 817.1T160.7 864.6H696.4000000000001Q762.3000000000001 864.6 809.7 817.1T857.1 703.9z" />
    <glyph glyph-name="cab"
      unicode="&#xF152;"
      horiz-adv-x="1000" d=" M890.63 498.516Q936.04 498.516 967.976 466.492T1000 389.145V201.64Q1000 194.815 995.538 190.44T984.338 186.065H937.44V154.741Q937.44 115.7189999999999 910.1400000000002 88.4210000000001T843.7300000000001 61.0340000000001T777.3200000000002 88.4200000000001T749.9350000000002 154.7420000000001V186.0670000000001H249.98V154.7430000000002Q249.98 115.7200000000002 222.68 88.4210000000002T156.27 61.0360000000002T89.86 88.4220000000001T62.474 154.7460000000001V186.0700000000001H15.664Q8.751 186.0700000000001 4.376 190.4440000000001T0 201.64V389.145Q0 434.555 32.025 466.492T109.372 498.516H123.022L174.294 703.083Q185.581 749.019 225.13 779.9929999999999T312.452 810.967H375.012V920.337Q375.012 927.25 379.387 931.625T390.587 936H609.33Q616.154 936 620.616 931.625T624.991 920.338V810.968H687.466Q735.326 810.968 774.876 779.9929999999999T825.6229999999999 703.083L876.8969999999999 498.516H890.6339999999999zM156.27 264.112Q188.468 264.112 211.392 287.124T234.404 342.2470000000001T211.392 397.4570000000001T156.269 420.3810000000001T101.059 397.4590000000001T78.133 342.249T101.057 287.126T156.267 264.1140000000001zM251.903 498.516H748.01L704.522 672.81Q703.5600000000001 676.746 697.697 681.384T687.46 686.021H312.45Q308.075 686.021 302.213 681.386T295.388 672.811zM843.73 264.112Q875.9300000000001 264.112 898.854 287.124T921.866 342.2470000000001T898.854 397.4570000000001T843.731 420.3810000000001T788.521 397.4590000000001T765.5989999999999 342.249T788.5229999999999 287.126T843.733 264.1140000000001z" />
    </font>
</defs>
</svg>
